<?xml version="1.0" encoding="utf-8"?>
<!-- Generator: Adobe Illustrator 19.2.1, SVG Export Plug-In . SVG Version: 6.00 Build 0)  -->
<svg version="1.1" id="Layer_1" xmlns="http://www.w3.org/2000/svg" xmlns:xlink="http://www.w3.org/1999/xlink" x="0px" y="0px"
	 viewBox="0 0 49.1 35.3" style="enable-background:new 0 0 49.1 35.3;" xml:space="preserve">
<style type="text/css">
	.st0{fill:#FFFFFF;}
</style>
<g>
	<path class="st0" d="M0.2,19.7c0-6.5,0-13,0-19.5c8.7,0,17.4,0,26.1,0c0,0,0,0-0.1,0c-0.9,0.1-1.8,0.1-2.7,0.1
		c-0.6,0-1.3,0.1-1.9,0.2c-1.1,0.2-2.2,0.5-3.4,0.7c-0.5,0.1-1,0.2-1.5,0.4c-0.8,0.3-1.5,0.7-2.1,1.2c-0.4,0.3-0.9,0.4-1.3,0.6
		c0,0,0.1-0.1,0.2-0.1C13.6,3.2,13.8,3,14,2.9c0,0,0.1,0,0.1-0.1c0,0,0.1-0.1,0.1-0.1c0,0,0-0.1-0.1-0.1c0,0-0.1,0-0.1,0
		c-0.2,0.1-0.4,0.3-0.5,0.4c-0.3,0.2-0.7,0.5-1.1,0.7c-0.1,0-0.1,0.1-0.2,0.1c-0.5,0.2-1,0.4-1.5,0.6c-0.1,0-0.2,0.1-0.3,0.1
		C9.8,4.6,9.2,4.8,8.7,5.2C8.4,5.4,8.3,5.7,8.3,6c0,0.3,0.1,0.5,0.1,0.8c0,0.3,0,0.5-0.1,0.8c0,0.1,0,0.1,0,0.2c0,0.5,0,1.1,0,1.6
		c0,0.1,0,0.2,0.1,0.3c0,0.1,0.1,0.2,0.1,0.3c0,0,0,0,0,0c0,0-0.1,0-0.1,0c-0.3,0-0.4,0.1-0.5,0.4c-0.1,0.2-0.1,0.4-0.1,0.6
		c0,0.4,0.1,0.7,0.5,0.9c0.1,0,0.2,0.1,0.3,0.1c0.1,0,0.3,0.1,0.3,0.2C9,12.4,9,12.6,9,12.8c0,0,0,0.1,0,0.1c0,0.1,0,0.2,0.2,0.2
		c0.1,0,0.3,0,0.4,0c0.5,0,1-0.1,1.5,0.1c0.2,0.1,0.4,0.1,0.6,0.1c0.4,0,0.9,0,1.3-0.1c0.5-0.1,0.9-0.3,1.4-0.4
		c0.1,0,0.3-0.1,0.4-0.2c0.2-0.1,0.4-0.2,0.6-0.3c1.2-0.4,2.2-0.9,3.3-1.6c0.1-0.1,0.3-0.1,0.4-0.2c0.1,0,0.2-0.1,0.2-0.2
		c0,0,0-0.1,0-0.1c0-0.2,0.1-0.5,0-0.7c-0.1-0.4-0.1-0.7-0.2-1c-0.1-0.2,0-0.3,0-0.5C19.1,8,19,8,18.9,8c-0.2,0-0.3-0.1-0.5-0.1
		c-0.2,0-0.4-0.1-0.6-0.2c0.1-0.1,0.3-0.2,0.4-0.3c0.1,0,0.1-0.1,0.1-0.2C18.2,7,17.9,6.9,17.6,7c-0.1,0-0.1,0-0.2,0.1
		c-0.1,0-0.2,0-0.2-0.1c0-0.4,0.1-0.7,0.3-1c0.3-0.4,0.7-0.7,1.1-0.9c0.2-0.1,0.2-0.1,0.4,0.1c0,0,0,0,0,0c0-0.1,0-0.2-0.2-0.2
		c-0.2,0-0.3,0-0.5,0.1c-0.2,0.1-0.4,0.3-0.5,0.4c-0.3,0.3-0.6,0.6-0.7,1.1c0,0.2,0,0.4,0,0.5c0,0.2,0.1,0.2,0.3,0.2
		c0.1,0,0.2-0.1,0.3-0.1c0.2,0,0.3,0,0.4,0.2c-0.1,0.1-0.3,0.2-0.4,0.4c-0.1,0.1-0.1,0.2,0,0.2C17.9,7.9,18.1,8,18.3,8
		c0.2,0,0.3,0.1,0.5,0.1c-0.1,0.2-0.1,0.4,0,0.7c0,0.1,0,0.1,0.1,0.2c0.1,0.5,0.2,0.9,0.1,1.4c0,0,0,0.1-0.1,0.1
		c-0.2,0.1-0.3,0.1-0.5,0.2c-0.7,0.5-1.5,0.9-2.3,1.2c-0.8,0.3-1.5,0.6-2.3,0.9c-0.5,0.1-0.9,0.3-1.4,0.4c-0.5,0.1-1.1,0.1-1.6-0.1
		c-0.1,0-0.3,0-0.4,0c-0.3,0-0.7,0-1,0c-0.1,0-0.2,0-0.2-0.2c0.1-0.3-0.1-0.5-0.2-0.8c-0.1-0.1-0.2-0.2-0.4-0.3
		c-0.1,0-0.3-0.1-0.4-0.1c-0.3-0.1-0.4-0.4-0.4-0.7c0-0.2,0.1-0.4,0.1-0.5c0-0.1,0.1-0.2,0.3-0.2c0.1,0,0.1,0,0.2,0
		c0.2,0,0.3-0.1,0.2-0.3c0-0.1-0.1-0.2-0.1-0.4c0-0.1-0.1-0.2-0.1-0.2c0-0.4,0-0.9,0-1.3c0-0.2,0-0.3,0.1-0.5c0.1-0.3,0.1-0.6,0-0.9
		c0-0.2-0.1-0.5,0-0.8c0.1-0.1,0.1-0.2,0.1-0.3c0,0,0,0,0,0c0-0.1,0.2,0,0.1-0.2c0.3-0.2,0.7-0.4,1-0.5c0,0,0.1,0,0.1,0
		c0.2,0,0.5-0.1,0.7-0.1c0.1,0,0.2-0.1,0.3-0.1c0.4-0.1,0.8-0.3,1.2-0.5C12.4,4,12.4,4,12.5,3.9c0.3-0.1,0.7-0.3,1-0.4
		c0.5-0.1,0.9-0.4,1.3-0.7c0.9-0.6,1.9-1.2,3.1-1.3c1-0.1,2-0.4,3-0.6c0.6-0.1,1.1-0.2,1.7-0.3c0.5-0.1,1.1,0,1.6-0.1
		c0.4,0,0.8,0,1.2,0c0.4,0,0.9-0.1,1.3-0.1c1.2,0,2.3,0.1,3.5,0.2c1.1,0.1,2.3,0.2,3.4,0.3c0.7,0.1,1.3,0.2,2,0.3
		c1.1,0.2,2.1,0.4,3.2,0.8c1.4,0.5,2.8,1.1,4.1,1.8c0.6,0.4,1.2,0.7,1.8,1.1c0.9,0.6,1.8,1.4,2.5,2.2c0.4,0.5,0.8,0.9,1.2,1.4
		c0.1,0.2,0.2,0.4,0.2,0.6c0,0.3,0,0.6,0,0.9c0,0.3,0,0.5,0.2,0.7c0.1,0.2,0.1,0.3,0,0.4c-0.1,0-0.1,0.1-0.2,0.1
		c-0.2,0.1-0.3,0.2-0.2,0.4c0,0.1,0.1,0.2,0.1,0.3c0,0.1,0.1,0.2,0.1,0.2c0.1,0.2,0.1,0.3-0.1,0.4c-0.1,0-0.1,0.1-0.1,0.1
		c-0.1,0.2-0.2,0.4-0.3,0.6c-0.1,0.2-0.3,0.3-0.5,0.3c-0.1,0-0.2,0-0.3,0c-0.5,0-1,0-1.6-0.1c-0.4,0-0.8-0.1-1.2-0.2
		c-0.4-0.1-0.7-0.3-1.1-0.4c-0.7-0.2-1.3-0.5-1.9-1.1c-0.1-0.1-0.2-0.1-0.2-0.2c-0.5-0.3-1-0.5-1.6-0.7c-0.1,0-0.3-0.1-0.4-0.1
		c-0.2-0.1-0.3-0.2-0.4-0.4c-0.1-0.2-0.2-0.4-0.2-0.5c0-0.1,0-0.2,0-0.2c0-0.3,0-0.7,0-1c0,0,0,0,0,0c0.1,0,0.1,0,0.2,0
		c0.2,0,0.4-0.1,0.3-0.4c0-0.2,0.1-0.3,0.2-0.2c0.1,0.1,0.2,0,0.2-0.1c0.1-0.1,0.1-0.2,0-0.3c-0.1-0.1-0.1-0.3,0-0.5
		c0.1-0.2,0.1-0.4,0-0.6c-0.2-0.6-0.6-1.1-1.2-1.3c-0.1-0.1-0.3-0.1-0.4-0.2c0,0,0,0,0,0c0,0,0,0,0,0c0.4-0.7,0.6-1.5,0.5-2.4
		c0-0.3-0.1-0.6-0.3-0.8c-0.1-0.1-0.3-0.2-0.4-0.2c-0.3,0-0.6,0.1-0.7,0.3c-0.2,0.2-0.3,0.5-0.4,0.7c-0.1,0.2-0.3,0.4-0.4,0.6
		c-0.4,0.4-0.9,0.7-1.4,0.9c-0.5,0.2-0.9,0.4-1.4,0.6c0,0-0.1,0-0.1,0c-0.4,0-0.7-0.1-1.1-0.1c-1,0-2,0-3.1,0c-0.4,0-0.8,0-1.1-0.1
		c-0.5-0.1-1.1-0.3-1.6-0.4c-0.1,0-0.1,0-0.2,0c-0.4,0-0.7,0-1.1-0.1c-0.3,0-0.6,0-0.9,0c-0.4,0-0.8,0-1.2,0.1c-0.1,0-0.2,0-0.3-0.1
		c-0.3-0.3-0.4-0.7-0.6-1.1c-0.2-0.5-0.6-0.9-1.2-1C20.6,2,20.3,2,20,1.9c-0.5-0.1-1.1,0.2-1,1c0,0.2,0,0.4,0,0.6
		c0,0.3,0.1,0.5,0.2,0.8c0.1,0.3,0.2,0.6,0.4,1c0.2,0.5,0.4,1.1,0.7,1.5c0.3,0.5,0.7,0.9,1,1.4c0.1,0.1,0.2,0.3,0.3,0.4
		c0.2,0.1,0.4,0.3,0.6,0.4c0.2,0.1,0.3,0,0.3-0.2c0,0,0-0.1,0-0.1c0,0,0-0.1-0.1-0.1c0,0-0.1,0.1-0.1,0.1c0,0.1,0,0.2-0.2,0.1
		c-0.3-0.2-0.6-0.4-0.8-0.7c0,0,0-0.1-0.1-0.1c-0.3-0.4-0.6-0.8-1-1.3c-0.1-0.2-0.3-0.4-0.4-0.6c-0.2-0.4-0.3-0.7-0.4-1.1
		c-0.1-0.2-0.2-0.4-0.2-0.6c-0.1-0.1-0.1-0.3-0.2-0.5c0-0.3-0.1-0.6-0.1-0.9c0-0.1,0.1-0.2,0.1-0.3c0.2-0.2,0.4-0.4,0.6-0.4
		c0.2-0.1,0.3-0.1,0.5,0c0,0,0.1,0,0.2,0c0,0,0.1,0,0.1,0c0.7,0.1,1.2,0.4,1.4,1.1c0.2,0.5,0.4,0.9,0.8,1.3C22.9,4.7,23,4.8,23.1,5
		c0.7,0.8,1.6,1.3,2.7,1.3c0.4,0,0.8,0,1.2,0c0.6,0,1.2,0.1,1.8,0.1c0.6,0,1.2,0,1.7-0.2c1.1-0.4,2.2-0.8,3.2-1.3
		c0.6-0.3,1.1-0.5,1.7-0.8c0.5-0.3,0.9-0.7,1.2-1.3c0.1-0.2,0.2-0.4,0.3-0.5c0.1-0.1,0.2-0.2,0.3-0.3c0.2-0.1,0.4-0.1,0.6,0.1
		c0.2,0.2,0.3,0.4,0.3,0.6c0.1,0.6,0,1.1-0.1,1.6C38,4.7,37.9,5,37.7,5.2c-0.1,0-0.2-0.2-0.3-0.1c-0.1,0.1,0.1,0.2,0.1,0.3
		c0,0-0.1,0.1-0.1,0.1c-0.8,1.1-1.7,1.9-2.7,2.8c0,0,0,0-0.1,0c-0.4-0.3-0.8-0.5-1.3-0.7c-0.2-0.1-0.3-0.1-0.4-0.2
		c-0.3-0.2-0.6-0.3-0.9-0.4c-0.6-0.2-1.2-0.2-1.7-0.2c-0.6,0-1.3,0-1.9,0.1c-0.5,0.1-1,0.3-1.6,0.4c-0.2,0.1-0.5,0.2-0.7,0.2
		C25.4,7.4,24.7,7.7,24,8c-1.2,0.7-2.2,1.6-3.1,2.6c-0.2,0.2-0.3,0.5-0.4,0.8c0,0.1-0.1,0.3-0.1,0.4c0,0-0.1,0.1-0.1,0.1
		c-0.2,0.1-0.4,0.2-0.4,0.4c-0.3,0.6-0.5,1.3-0.6,2c0,0.1,0,0.2,0,0.3c-0.1,0.4-0.2,0.8-0.3,1.3c-0.1,0.4-0.2,0.7-0.4,1.1
		c-0.1,0.1-0.2,0.3-0.3,0.4c0,0-0.1,0.1,0,0.2c0,0.1,0.1,0,0.1,0c0.1,0,0.1-0.1,0.1-0.1c0.2-0.3,0.4-0.6,0.5-0.9
		c0.1-0.4,0.2-0.8,0.3-1.2c0.1-0.4,0.2-0.7,0.2-1.1c0-0.1,0-0.3,0.1-0.4c0.1-0.3,0.2-0.6,0.3-1c0.1-0.3,0.2-0.6,0.5-0.7
		c0,0,0.1,0,0.1-0.1c0,0.1,0,0.1,0,0.1c-0.2,0.8-0.5,1.7-0.6,2.5c0,0.3-0.1,0.7,0,1c0.1,0.6,0.3,1.1,0.6,1.6c0.3,0.5,0.7,1.1,1,1.6
		c0.7,1,1.6,1.6,2.7,2c0.7,0.2,1.5,0.3,2.3,0.4c1.3,0.1,2.5-0.1,3.7-0.5c0.7-0.2,1.3-0.6,1.9-0.9c0.7-0.4,1.4-0.8,2.1-1.2
		c0.7-0.4,1.2-0.9,1.6-1.6c0.6-1,1-2.1,1.4-3.2c0.1-0.4,0.2-0.8,0.2-1.3c-0.1-0.5-0.2-1.1-0.5-1.6c-0.4-0.7-0.9-1.4-1.4-2
		c-0.1-0.1-0.1-0.1-0.2-0.2c-0.1-0.1-0.2-0.2-0.4-0.3c0,0,0,0,0,0c0,0,0.1,0,0.1,0c0.3,0.1,0.5,0.3,0.8,0.4c0.4,0.3,0.8,0.6,1,1.1
		c0.1,0.2,0.2,0.4,0.3,0.6c0.4,0.6,0.6,1.3,0.7,2c0.1,0.5,0.1,1.1,0.1,1.6c0,0.2-0.1,0.4-0.2,0.6c-0.1,0.1-0.1,0.2-0.1,0.4
		c-0.1,0.4-0.2,0.8-0.4,1.2c-0.1,0.2-0.2,0.5-0.3,0.7c0,0,0,0.1-0.1,0.1c0,0-0.1,0.1,0,0.1c0,0,0.1,0,0.1,0c0.1-0.1,0.1-0.2,0.2-0.3
		c0.1-0.2,0.2-0.5,0.3-0.7c0.1-0.3,0.3-0.7,0.4-1c0-0.1,0-0.1,0-0.2c0,0,0,0,0,0c0,0.1,0,0.3,0.1,0.4c0,0.3,0,0.6,0.1,0.9
		c0.1,0.5,0.3,1,0.4,1.4c0.1,0.5,0.3,0.9,0.6,1.3c0.2,0.2,0.3,0.5,0.5,0.7c0.1,0.1,0.1,0.1,0.2,0.2c0,0,0.1,0,0.1,0c0,0,0-0.1,0-0.1
		c-0.1,0-0.2-0.1-0.3-0.2c-0.1-0.1-0.2-0.3-0.3-0.4c-0.3-0.4-0.6-0.8-0.7-1.3c-0.1-0.2-0.1-0.5-0.2-0.8c0.1,0.1,0.3,0.2,0.4,0.3
		c0.1,0.1,0.3,0.2,0.5,0.2c0.1,0,0.2,0.1,0.4,0.1c0.1,0,0.2,0.1,0.3,0.3c0.2,0.6,0.5,1.1,0.8,1.7c0.4,0.6,0.8,1.1,1.2,1.7
		c0.3,0.4,0.6,0.7,0.9,1c0.3,0.3,0.7,0.7,1,1c0.4,0.4,0.8,0.9,1.1,1.4c0.1,0.2,0.2,0.3,0.3,0.5c0.2,0.6,0.4,1.1,0.4,1.8
		c0,0.2,0,0.5,0,0.7c0.1,0.9,0.3,1.8,0.3,2.7c0,0.5,0,1,0,1.5c-0.1,0.4-0.2,0.7-0.3,1.1c0,0,0,0,0,0c-0.2,0.1-0.4,0.1-0.7,0.2
		c-0.4,0.1-0.7,0.2-1.1,0.3c-0.4,0-0.8,0.1-1.2,0.1c-0.5,0.1-1,0.1-1.5,0.1c-0.3,0-0.6,0-0.9,0.1c-1.1,0.1-2.3,0.3-3.4,0.4
		c-0.8,0.1-1.6,0.1-2.5,0.1c-0.6,0-1.2,0-1.8,0c-0.9,0-1.7,0.1-2.6,0.1c-0.7,0-1.4,0-2.1,0c-0.2,0-0.4,0-0.5,0
		c-0.3,0-0.6,0.1-0.9,0.1c-0.4,0-0.8,0-1.2,0c-0.9,0-1.9,0.1-2.8,0.2c-0.4,0-0.7,0.1-1.1,0.1c-0.6,0-1.3-0.1-1.9-0.2
		c-0.7-0.1-1.3-0.1-2-0.1c-0.5,0-1,0-1.5,0.1c-0.4,0.1-0.8,0.1-1.1-0.1c-0.1,0-0.3-0.1-0.4-0.1c-0.3,0-0.5-0.1-0.7-0.2
		c-0.2-0.1-0.4-0.2-0.6-0.2c-0.7-0.2-1.4-0.6-2.1-0.9c0,0,0,0-0.1,0c0,0,0,0,0,0c0,0,0,0,0.1,0c0.4,0.2,0.7,0.4,1.1,0.6
		c0.4,0.2,0.9,0.4,1.4,0.6c0.4,0.2,0.7,0.3,1.1,0.3c0.4,0.1,0.8,0.2,1.3,0.1c0.6-0.1,1.2-0.1,1.8-0.1c0.7,0.1,1.4,0.1,2.1,0.2
		c0.6,0.1,1.3,0.1,1.9,0.1c0.5,0,1-0.1,1.5-0.1c0.8-0.1,1.6-0.1,2.5-0.1c0.3,0,0.6,0,0.9,0c0.5,0,1-0.1,1.4-0.1c1.3,0,2.6,0,3.8,0
		c1,0,2.1,0,3.1,0c0.2,0,0.5,0,0.7,0c0.8-0.1,1.5-0.1,2.3-0.2c0.7-0.1,1.4-0.1,2.1-0.2c0.5-0.1,0.9-0.1,1.4-0.1c0.2,0,0.5,0,0.7-0.1
		c0.5-0.1,1.1-0.1,1.6-0.2c0.5-0.1,1-0.1,1.4-0.3c0.1,0,0.1,0,0.2-0.1c0.1,0.1,0.2,0.1,0.3,0c0.1-0.1,0.2-0.2,0.2-0.3
		c0.1-0.3,0.2-0.6,0.2-0.9c0.1-0.5,0.1-0.9,0.1-1.4c0-0.7-0.1-1.5-0.2-2.2c-0.1-0.5-0.2-1-0.2-1.4c0,0,0-0.1,0-0.1
		c-0.1-0.5-0.2-1-0.3-1.4c-0.1-0.4-0.3-0.7-0.6-1c-0.2-0.2-0.4-0.4-0.6-0.7c-0.4-0.5-0.9-1.1-1.4-1.5c-0.3-0.3-0.7-0.7-0.9-1
		c-0.3-0.5-0.7-0.9-1-1.4c-0.4-0.6-0.7-1.2-1-1.9c-0.1-0.3-0.3-0.5-0.6-0.5c-0.3,0-0.6-0.2-0.8-0.3c-0.2-0.1-0.3-0.3-0.3-0.4
		c-0.2-0.5-0.3-0.9-0.3-1.4c0-0.2,0-0.3-0.1-0.5c0-0.1,0-0.2,0-0.3c0-0.1,0.1-0.1,0.1-0.2c0.1-0.1,0.1-0.3,0.1-0.4
		c0-0.2,0-0.5,0-0.7c0-0.9-0.2-1.8-0.6-2.6c-0.2-0.4-0.5-0.8-0.7-1.2c-0.1-0.3-0.3-0.5-0.6-0.7c-0.1-0.1-0.3-0.2-0.5-0.3
		c-0.2-0.1-0.4-0.2-0.7-0.3c1-0.9,2-1.7,2.7-2.8c0.1,0.1,0.2,0.1,0.4,0.1c0.5,0.2,0.8,0.5,1.1,1c0.1,0.3,0.2,0.5,0,0.8
		c-0.1,0.1-0.1,0.3,0,0.4c0,0,0,0.1,0.1,0.2c-0.1,0-0.1,0-0.1,0c-0.2,0-0.4,0.2-0.4,0.4c0,0.2,0,0.2-0.2,0.2c0,0-0.1,0-0.1,0
		c-0.2,0-0.2,0-0.2,0.2c0,0.3,0,0.6,0,0.8c0,0.3,0,0.6,0.2,0.9c0,0,0,0.1,0.1,0.1c0.1,0.4,0.3,0.6,0.7,0.7c0.1,0,0.1,0,0.2,0.1
		c0.8,0.1,1.4,0.5,2,1c0.3,0.2,0.6,0.5,1,0.6c0.5,0.2,1,0.4,1.5,0.6c0.4,0.2,0.9,0.3,1.3,0.4c0.7,0.1,1.3,0.1,2,0.1
		c0.4,0,0.8-0.2,1-0.6c0.1-0.2,0.2-0.4,0.4-0.6c0.2-0.2,0.2-0.5,0.1-0.7c-0.1-0.1-0.1-0.2-0.2-0.3c-0.1-0.2-0.1-0.2,0.1-0.3
		c0,0,0,0,0.1,0c0.3-0.1,0.4-0.6,0.2-0.8c-0.1-0.1-0.1-0.3-0.1-0.5c0-0.3,0-0.5,0-0.8c0-0.4-0.1-0.7-0.3-1c-0.5-0.5-0.9-1.1-1.4-1.6
		c-0.9-0.9-1.9-1.8-3-2.4c-1.5-0.9-3-1.7-4.6-2.2c-0.7-0.3-1.5-0.6-2.2-0.8c-1.1-0.3-2.2-0.5-3.3-0.6c-0.6-0.1-1.3-0.1-1.9-0.2
		c-1.2-0.2-2.4-0.3-3.7-0.3c-0.2,0-0.4,0-0.5,0c7.1,0,14.1,0,21.2,0c0,11.7,0,23.4,0,35.2c-16.3,0-32.6,0-48.9,0c0-5,0-10.1,0-15.1
		c0.1,0.3,0.2,0.5,0.4,0.7c0.1,0.2,0.2,0.3,0.3,0.5c0.1,0.2,0.3,0.5,0.4,0.7c0.2,0.4,0.6,0.6,1,0.7C3,23,3.7,23,4.5,22.9
		c0.8-0.1,1.6-0.3,2.4-0.5c0.7-0.2,1.5-0.5,2.2-0.7c0.9-0.3,1.9-0.4,2.8-0.6c0.6-0.1,1.3-0.2,1.9,0c-0.1-0.1-0.2-0.2-0.4-0.2
		c-0.4,0-0.8,0-1.2,0c-0.8,0.1-1.5,0.2-2.3,0.4c-0.7,0.2-1.4,0.4-2.1,0.6c-1.2,0.4-2.3,0.7-3.5,0.9c-0.6,0.1-1.2,0.1-1.8,0
		c-0.5-0.1-0.9-0.2-1.1-0.6c-0.2-0.3-0.3-0.6-0.5-0.9c-0.1-0.2-0.3-0.4-0.4-0.6c-0.1-0.1-0.1-0.2-0.2-0.4c-0.1-0.3-0.1-0.5,0-0.8
		c0.1-0.7,0.4-1.3,0.7-1.9c0.2-0.4,0.4-0.6,0.8-0.6c0,0,0.1,0,0.1,0c0.6-0.1,1,0.1,1.3,0.5c0.3,0.4,0.5,0.8,0.6,1.2
		c0.1,0.2,0.2,0.4,0.2,0.7c0,0.3,0,0.5,0.1,0.8c0.1,0.4-0.1,0.6-0.4,0.6C3.5,21,3.1,21,2.8,21c-0.5,0-0.8-0.2-1-0.7
		c-0.1-0.4-0.1-0.8-0.1-1.3c0-0.3,0.1-0.6,0.3-0.8c0,0,0-0.1,0-0.1c0,0-0.1,0-0.1,0c-0.1,0.1-0.2,0.3-0.3,0.4
		c-0.1,0.3-0.1,0.6-0.2,0.9c0,0.5,0,0.9,0.3,1.3C2,21,2.2,21.1,2.6,21.1c0.3,0,0.6,0,0.9,0c0.2,0,0.4-0.1,0.5-0.1
		c0.3-0.1,0.4-0.3,0.4-0.7c0-0.1,0-0.3-0.1-0.4c0-0.2,0-0.4,0-0.6c-0.2-0.8-0.5-1.5-1-2c-0.2-0.2-0.5-0.4-0.8-0.4
		c-0.3,0-0.7,0.1-1,0.2c-0.2,0.1-0.3,0.2-0.4,0.4c-0.3,0.5-0.5,1-0.6,1.5C0.3,19.2,0.2,19.4,0.2,19.7z M4,10.4c0,0,0-0.1,0-0.1
		c-0.1,0,0-0.1,0-0.1C4,10,4.1,9.9,4.1,9.8c0-0.1,0.1-0.2,0.1-0.2C4.4,9,4.6,8.6,5,8.1c0.4-0.6,1-1,1.8-1.1C7.1,7,7.6,7,8,7
		c0,0,0.1,0,0.1,0c0,0,0,0,0,0C8.1,7,8,7,7.9,7c-0.3,0-0.6-0.1-0.8-0.1c-0.6,0-1.2,0.2-1.7,0.5C5,7.7,4.7,8.1,4.5,8.6
		c-0.2,0.5-0.5,1-0.7,1.5C3.7,10.3,3.8,10.4,4,10.4c-0.1,0.1-0.2,0.3-0.4,0.4c-0.2,0.2-0.4,0.5-0.4,0.8c0,0.4-0.1,0.8-0.1,1.2
		c0,0.4,0.1,0.8,0.3,1.1c0.1,0.1,0.1,0.2,0.2,0.4c0.1,0.1,0.1,0.2,0,0.3c-0.1,0.1-0.1,0.2-0.2,0.3c-0.3,0.4-0.6,0.7-0.8,1.1
		c-0.1,0.2-0.2,0.5-0.1,0.7c0-0.1,0-0.2,0-0.2c0-0.2,0.1-0.4,0.2-0.5c0.2-0.2,0.4-0.5,0.6-0.7c0.2-0.2,0.4-0.5,0.5-0.7
		c0.1-0.2,0.3-0.4,0.5-0.5c0.2-0.2,0.5-0.4,0.8-0.6c0.2-0.2,0.5-0.2,0.8-0.1c0.1,0,0.1,0,0.2,0.1c0,0,0.1,0,0.1,0c0,0,0,0,0,0
		c-0.1-0.1-0.2-0.1-0.3-0.2C5.5,13,5.2,13,5,13.2c-0.4,0.3-0.8,0.6-1.1,0.9c-0.1,0.1-0.1,0.2-0.2,0.3c0-0.1,0-0.1-0.1-0.2
		c0-0.1,0-0.1-0.1-0.2c-0.3-0.8-0.3-1.5-0.2-2.3c0.1-0.5,0.4-0.8,0.7-1.1c0.3-0.3,0.6-0.4,1-0.5c0.2,0,0.4-0.1,0.6-0.1
		c0.2,0,0.5,0.1,0.6,0.3c0.2,0.3,0.4,0.6,0.4,1c0,0.3-0.1,0.5-0.3,0.7c0,0,0,0.1,0,0.1c0,0,0.1,0,0.1,0c0.2-0.1,0.3-0.2,0.4-0.5
		c0.1-0.4,0-0.7-0.2-1C6.3,10,6,9.8,5.4,9.9C5.3,9.9,5.1,10,5,9.9c-0.2,0-0.4,0-0.5,0.1C4.3,10.1,4.1,10.3,4,10.4z M3,20.3
		c0,0,0,0.1,0.1,0.1c0.2,0,0.3,0,0.3-0.2c0-0.1,0-0.3,0-0.4c-0.1-0.5-0.3-1-0.6-1.4c-0.2-0.3-0.4-0.5-0.7-0.7
		c-0.3-0.2-0.6-0.1-0.9,0.2c-0.2,0.2-0.3,0.5-0.4,0.7c-0.1,0.2-0.1,0.5-0.1,0.7c0,0.2,0.1,0.5,0.1,0.7c0.1,0.6,0.3,1.1,0.9,1.4
		c0.4,0.2,0.7,0.5,1.1,0.7c0.2,0.1,0.4,0.2,0.6,0.2c0.6,0.1,1.3,0,1.9-0.2C5.6,22,6,21.9,6.4,21.8c0.4-0.1,0.8-0.2,1.1-0.4
		c0.1-0.1,0.2-0.1,0.3-0.1c0.3-0.1,0.6-0.2,0.8-0.3c0.4-0.2,0.8-0.5,1.3-0.5c0.5-0.1,1-0.2,1.5-0.4c0.2-0.1,0.4-0.2,0.7-0.2
		c0.4,0,0.7,0,1.1,0c0.5,0,0.9,0,1.4,0.2c0,0,0.1,0,0.1,0c0,0,0-0.1-0.1-0.1c-0.3-0.1-0.5-0.2-0.8-0.2c-0.4,0-0.8,0-1.2-0.1
		c-0.5,0-1,0.1-1.4,0.3c-0.3,0.2-0.7,0.3-1,0.3c-0.2,0-0.4,0.1-0.6,0.1c-0.3,0.1-0.6,0.3-0.9,0.4c-0.2,0.1-0.5,0.2-0.7,0.3
		c-0.2,0.1-0.5,0.2-0.7,0.3c-0.2,0.1-0.3,0.2-0.5,0.2c-0.5,0.1-1,0.2-1.5,0.4c-0.5,0.2-0.9,0.2-1.4,0.2c-0.3,0-0.6,0-0.9-0.2
		c-0.4-0.2-0.8-0.5-1.1-0.7c-0.4-0.2-0.6-0.6-0.7-1C1,20,1,19.6,0.9,19.3c0-0.1,0-0.1,0-0.2c0.1-0.4,0.2-0.7,0.4-1
		c0.2-0.3,0.5-0.4,0.9-0.1c0.1,0,0.1,0.1,0,0.1c0,0.1-0.1,0.1-0.1,0.2c-0.1,0.2-0.1,0.4,0,0.6c0,0.1,0.1,0.2,0.1,0.2
		C2.3,19.7,2.6,20.1,3,20.3z M18.7,16.4c-0.1,0.2-0.2,0.2-0.4,0.3c-0.1,0-0.2,0.1-0.3,0.1c-0.3,0.1-0.6,0.3-0.9,0.1
		c-0.1,0-0.1,0-0.2,0c-0.3,0-0.4,0.1-0.5,0.3c0,0,0,0.1,0,0.2c0,0.3-0.2,0.5-0.4,0.8c-0.4,0.6-0.8,1.2-1,1.8
		c-0.1,0.3-0.2,0.5-0.4,0.8c-0.3,0.4-0.5,0.8-0.7,1.2c-0.2,0.3-0.4,0.6-0.6,0.9c-0.4,0.5-0.8,1-1.1,1.5c-0.3,0.4-0.4,0.8-0.5,1.2
		c-0.1,0.8-0.2,1.5-0.4,2.3C11.1,28.4,11,29,11,29.6c0,0.3,0,0.7,0,1c0,0.6,0,1.3-0.1,1.9c0,0.2,0,0.4-0.1,0.7c0,0.1,0,0.2,0,0.3
		c0,0.1,0.1,0.2,0.2,0.2c0,0,0.1,0,0.1-0.1c0,0,0-0.1,0-0.1c-0.1,0-0.1-0.1-0.1-0.2c0-0.1,0.1-0.3,0.1-0.4c0-0.3,0-0.5,0-0.8
		c0.1-0.7,0.1-1.4,0.1-2.1c0-0.5,0-0.9,0.1-1.4c0-0.3,0.1-0.7,0.2-1c0.1-0.7,0.2-1.4,0.3-2c0.1-0.4,0.3-0.8,0.5-1.2
		c0.4-0.6,0.8-1.1,1.2-1.7c0.4-0.6,0.8-1.3,1.2-1.9c0.2-0.3,0.4-0.6,0.4-1c0-0.1,0.1-0.2,0.1-0.3c0.3-0.5,0.5-1,0.9-1.5
		c0.1-0.2,0.2-0.4,0.3-0.6c0.1-0.4,0.2-0.5,0.6-0.4c0.1,0,0.3,0.1,0.4,0c0.4-0.1,0.7-0.3,1.1-0.4C18.7,16.5,18.7,16.5,18.7,16.4z
		 M8,6.1c0,0,0,0.1,0,0.1c0,0,0,0,0.1,0.1c0-0.1,0.1-0.1,0.1-0.2C8.2,6.1,8.1,6,8,6C7.5,5.7,6.9,5.7,6.3,6C5.9,6.2,5.5,6.4,5,6.7
		C4.6,6.9,4.2,7.2,3.9,7.5C3.3,8.1,3.1,8.9,3.1,9.7c0,0.3,0,0.6,0.2,0.9c0,0.1,0.1,0.1,0.1,0.2c0,0,0,0,0,0c0,0,0-0.1,0-0.1
		c0-0.1-0.1-0.2-0.1-0.3c-0.1-0.4-0.1-0.7,0-1.1c0.1-0.7,0.4-1.3,0.9-1.8c0.3-0.3,0.6-0.5,1-0.7c0.5-0.3,0.9-0.5,1.4-0.7
		C7,5.9,7.5,5.9,8,6.1z M5.5,14.4C5.5,14.4,5.5,14.4,5.5,14.4C5.5,14.4,5.5,14.4,5.5,14.4c0.5,0.3,0.8,0.8,0.8,1.4
		c0,0.4-0.3,0.6-0.7,0.5c-0.1,0-0.2,0-0.3-0.1c-0.6-0.2-0.8-0.8-1-1.3c0,0,0,0,0,0c0,0,0-0.1,0-0.1c0.3-0.3,0.7-0.5,1.1-0.6
		c0.1,0,0.2,0,0.3,0c0,0,0.1,0,0.1,0c0,0,0-0.1,0-0.1c-0.1,0-0.2,0-0.2,0c-0.5,0.1-0.9,0.4-1.3,0.7C4,15,3.8,15.3,3.6,15.5
		c-0.3,0.3-0.5,0.7-0.6,1.2c0.2-0.3,0.3-0.7,0.5-0.9c0.2-0.2,0.5-0.5,0.7-0.7c0.2,0.4,0.4,0.7,0.6,1c0.3,0.3,0.7,0.5,1.1,0.4
		c0.2,0,0.4-0.2,0.4-0.4c0-0.1,0-0.3,0-0.4c-0.1-0.5-0.3-0.9-0.7-1.2C5.6,14.4,5.6,14.4,5.5,14.4z M6.1,13.5
		C6.1,13.5,6.1,13.5,6.1,13.5c0,0,0,0.1,0,0.1c0.3,0.3,0.5,0.7,0.8,1c0.2,0.3,0.4,0.6,0.4,0.9c0.1,0.4,0.1,0.8,0,1.2
		c-0.1,0.7-0.8,1-1.4,0.7c-0.1-0.1-0.3-0.1-0.4-0.1c-0.1,0-0.3,0-0.4-0.1c-0.5-0.3-1-0.6-1.1-1.3c0,0,0-0.1-0.1-0.1
		c0,0-0.1,0-0.1,0.1c0,0,0,0.1,0,0.1c0,0.2,0.2,0.4,0.3,0.6c0.3,0.3,0.6,0.6,1,0.7c0.3,0.1,0.6,0.2,0.8,0.2c0.5,0.2,1-0.1,1.3-0.6
		c0.3-0.6,0.3-1.3,0-1.9C7,14.6,6.6,14,6.1,13.5C6.2,13.5,6.1,13.5,6.1,13.5z M4.1,11.7c0,0.1,0.1,0.1,0.1,0.2
		c0.2,0.2,0.4,0.3,0.6,0.3c0.4,0,0.7-0.1,1-0.3c0.2-0.1,0.3-0.3,0.3-0.6c0.1-0.3-0.1-0.6-0.3-0.8c-0.2-0.3-0.5-0.3-0.8-0.2
		c-0.7,0.4-1.5,1.7-1.2,2.7c0,0.1,0,0.3,0.1,0.4c0,0,0,0,0,0c0-0.2,0-0.4-0.1-0.5C3.8,12.4,3.9,12,4.1,11.7z M17.3,9.3
		C17.3,9.3,17.3,9.3,17.3,9.3c0,0-0.1,0-0.1,0c-0.4,0-0.8,0.2-1.2,0.3c-1.2,0.5-2.4,0.8-3.7,0.8c-0.4,0-0.8,0-1.2,0.1
		c-0.2,0-0.4,0.1-0.6,0c0.1,0.1,0.3,0.1,0.5,0.1c0.4,0,0.8-0.1,1.1-0.1c1,0,2-0.2,3-0.5c0.6-0.2,1.2-0.4,1.7-0.6
		C17,9.4,17.1,9.3,17.3,9.3z M16.7,7.8C16.6,7.8,16.6,7.8,16.7,7.8C16.6,7.8,16.6,7.8,16.7,7.8C16.4,8,16.2,8.1,16,8.1
		c-0.6,0.2-1.2,0.5-1.7,0.8c-0.3,0.2-0.5,0.3-0.8,0.4C12.2,9.7,11,9.9,9.8,9.9c-0.1,0-0.2,0-0.3,0c0.2,0,0.4,0,0.6,0
		c0.9,0,1.9-0.2,2.8-0.4c0.4-0.1,0.8-0.2,1.2-0.4c0.6-0.4,1.3-0.7,2-1c0.1-0.1,0.3-0.1,0.4-0.2C16.6,7.9,16.6,7.9,16.7,7.8z
		 M27,28.4C27,28.4,27,28.4,27,28.4c0,0,0.1,0,0.1,0c0.3,0,0.5,0.1,0.8,0.1c0.6,0,1.1,0,1.7-0.1c0.3,0,0.7-0.1,1-0.1
		c0.2,0,0.5,0,0.7,0c0.4-0.1,0.8-0.1,1.3-0.2c0.1,0,0.1,0,0.2-0.1c0.4-0.1,0.7-0.2,1.1-0.1c0,0,0.1,0,0.1,0c0,0,0,0,0,0
		c0,0,0,0-0.1,0c-0.4,0-0.7,0-1.1,0.1c-0.5,0.2-1.1,0.3-1.6,0.3c-0.3,0-0.6,0-0.9,0c-0.2,0-0.4,0.1-0.6,0.1c-0.4,0-0.8,0-1.1,0.1
		c-0.3,0-0.7,0-1,0C27.3,28.4,27.1,28.4,27,28.4z M14.4,26.2C14.4,26.2,14.4,26.2,14.4,26.2c0.1,0.1,0.3,0.1,0.4,0.1
		c0.3,0,0.6,0,0.8,0.1c0.3,0.1,0.6,0.2,0.9,0.2c0.7,0.2,1.4,0.2,2.2,0c0.2-0.1,0.5-0.1,0.7-0.1c0.2,0,0.4,0,0.6,0.1c0,0,0,0,0.1,0
		c0,0,0,0,0,0c0,0-0.1,0-0.1,0c-0.3-0.1-0.7-0.1-1,0c-0.3,0.1-0.6,0.1-0.8,0.2c-0.3,0.1-0.7,0-1,0c-0.4-0.1-0.9-0.1-1.3-0.3
		c-0.2-0.1-0.3-0.1-0.5-0.1C14.9,26.2,14.7,26.3,14.4,26.2z M6.3,11.8C6.2,11.8,6.2,11.8,6.3,11.8C6.2,11.8,6.2,11.8,6.3,11.8
		c-0.2,0.2-0.3,0.3-0.5,0.3c-0.2,0.1-0.5,0.2-0.7,0.2c-0.2,0-0.4,0-0.6,0c-0.1,0-0.2-0.1-0.4-0.1c0,0-0.1,0-0.1,0c0,0,0,0.1,0.1,0.1
		c0.1,0,0.1,0.1,0.2,0.1c0.7,0.2,1.3,0,1.8-0.4C6.2,12,6.2,11.9,6.3,11.8C6.3,11.9,6.3,11.8,6.3,11.8z M36.8,26.5
		c0.5,0.3,1.5,0.5,2.3,0.3C38.3,26.8,37.5,26.9,36.8,26.5z M9.7,6.1c0.2,0.1,1.1,0.1,1.3,0c0,0-0.1,0-0.1,0c-0.3,0-0.7,0-1,0
		c-0.1,0-0.2,0-0.2-0.1C9.7,6.1,9.7,6.1,9.7,6.1z M23.6,22.1c-0.4-0.1-0.8-0.2-1.2-0.3C22.7,22,23.1,22.1,23.6,22.1z"/>
	<path d="M27.8,0.2c0.2,0,0.4,0,0.5,0c1.2,0.1,2.4,0.2,3.7,0.3c0.6,0.1,1.3,0.1,1.9,0.2c1.1,0.1,2.2,0.3,3.3,0.6
		c0.8,0.2,1.5,0.5,2.2,0.8c1.6,0.6,3.1,1.3,4.6,2.2c1.1,0.7,2.1,1.5,3,2.4c0.5,0.5,0.9,1.1,1.4,1.6c0.2,0.3,0.4,0.6,0.3,1
		c0,0.3,0,0.5,0,0.8c0,0.2,0,0.4,0.1,0.5c0.2,0.3,0.1,0.7-0.2,0.8c0,0,0,0-0.1,0c-0.2,0.1-0.2,0.2-0.1,0.3c0.1,0.1,0.1,0.2,0.2,0.3
		c0.1,0.2,0.1,0.5-0.1,0.7c-0.2,0.2-0.3,0.4-0.4,0.6c-0.2,0.4-0.6,0.6-1,0.6c-0.7,0-1.3,0-2-0.1c-0.5-0.1-0.9-0.2-1.3-0.4
		c-0.5-0.2-1-0.4-1.5-0.6c-0.3-0.1-0.7-0.4-1-0.6c-0.6-0.5-1.3-0.9-2-1c-0.1,0-0.1,0-0.2-0.1c-0.4-0.1-0.6-0.3-0.7-0.7
		c0,0,0-0.1-0.1-0.1c-0.2-0.3-0.2-0.6-0.2-0.9c0-0.3,0-0.6,0-0.8c0-0.2,0-0.2,0.2-0.2c0,0,0.1,0,0.1,0c0.2,0,0.2,0,0.2-0.2
		c0-0.2,0.2-0.4,0.4-0.4c0,0,0.1,0,0.1,0c0-0.1,0-0.1-0.1-0.2c-0.1-0.1-0.1-0.3,0-0.4c0.2-0.3,0.1-0.5,0-0.8c-0.2-0.5-0.6-0.8-1.1-1
		c-0.1,0-0.2-0.1-0.4-0.1c-0.7,1.1-1.7,2-2.7,2.8c0.2,0.1,0.5,0.2,0.7,0.3c0.2,0.1,0.3,0.2,0.5,0.3c0.3,0.2,0.4,0.4,0.6,0.7
		c0.2,0.4,0.5,0.8,0.7,1.2c0.4,0.8,0.6,1.7,0.6,2.6c0,0.2,0,0.5,0,0.7c0,0.2,0,0.3-0.1,0.4c0,0.1-0.1,0.1-0.1,0.2
		c-0.1,0.1-0.1,0.2,0,0.3c0.1,0.1,0.1,0.3,0.1,0.5c0,0.5,0.1,0.9,0.3,1.4c0.1,0.2,0.2,0.3,0.3,0.4c0.2,0.2,0.5,0.3,0.8,0.3
		c0.3,0,0.5,0.2,0.6,0.5c0.3,0.7,0.6,1.3,1,1.9c0.3,0.5,0.7,0.9,1,1.4c0.3,0.4,0.6,0.7,0.9,1c0.5,0.5,0.9,1,1.4,1.5
		c0.2,0.2,0.4,0.4,0.6,0.7c0.3,0.3,0.5,0.6,0.6,1c0.1,0.5,0.2,1,0.3,1.4c0,0,0,0.1,0,0.1c0,0.5,0.1,1,0.2,1.4
		c0.1,0.7,0.2,1.5,0.2,2.2c0,0.5,0,0.9-0.1,1.4c-0.1,0.3-0.1,0.6-0.2,0.9c0,0.1-0.1,0.3-0.2,0.3c-0.1,0.1-0.2,0.1-0.3,0
		c-0.1,0-0.1,0-0.2,0.1c-0.5,0.2-0.9,0.3-1.4,0.3c-0.5,0.1-1.1,0.1-1.6,0.2c-0.2,0-0.5,0.1-0.7,0.1c-0.5,0-0.9,0.1-1.4,0.1
		c-0.7,0.1-1.4,0.2-2.1,0.2c-0.8,0.1-1.5,0.1-2.3,0.2c-0.2,0-0.5,0-0.7,0c-1,0-2.1,0-3.1,0c-1.3,0-2.6,0-3.8,0c-0.5,0-1,0.1-1.4,0.1
		c-0.3,0-0.6,0-0.9,0c-0.8,0-1.6,0-2.5,0.1c-0.5,0-1,0.1-1.5,0.1c-0.6,0-1.3-0.1-1.9-0.1c-0.7-0.1-1.4-0.1-2.1-0.2
		c-0.6-0.1-1.2,0-1.8,0.1c-0.4,0.1-0.9,0-1.3-0.1c-0.4-0.1-0.7-0.2-1.1-0.3c-0.5-0.2-0.9-0.4-1.4-0.6c-0.4-0.2-0.7-0.4-1.1-0.6
		c0,0,0,0-0.1,0c0,0,0,0,0,0c0,0,0,0,0.1,0c0.7,0.3,1.4,0.7,2.1,0.9c0.2,0.1,0.4,0.2,0.6,0.2c0.2,0.1,0.5,0.2,0.7,0.2
		c0.1,0,0.3,0,0.4,0.1c0.4,0.1,0.8,0.1,1.1,0.1c0.5-0.1,1-0.1,1.5-0.1c0.7,0,1.3,0.1,2,0.1c0.6,0.1,1.3,0.1,1.9,0.2
		c0.4,0,0.7,0,1.1-0.1c0.9-0.1,1.9-0.1,2.8-0.2c0.4,0,0.8,0,1.2,0c0.3,0,0.6-0.1,0.9-0.1c0.2,0,0.4,0,0.5,0c0.7,0,1.4,0,2.1,0
		c0.9,0,1.7-0.1,2.6-0.1c0.6,0,1.2,0,1.8,0c0.8,0,1.7-0.1,2.5-0.1c1.1-0.1,2.3-0.2,3.4-0.4c0.3,0,0.6,0,0.9-0.1c0.5,0,1-0.1,1.5-0.1
		c0.4,0,0.8-0.1,1.2-0.1c0.4,0,0.7-0.1,1.1-0.3c0.2-0.1,0.4-0.1,0.7-0.2c0,0,0,0,0,0c0.1-0.4,0.2-0.7,0.3-1.1c0.1-0.5,0.1-1,0-1.5
		c0-0.9-0.2-1.8-0.3-2.7c0-0.2,0-0.5,0-0.7c0-0.6-0.2-1.2-0.4-1.8c-0.1-0.2-0.2-0.3-0.3-0.5c-0.4-0.5-0.7-0.9-1.1-1.4
		c-0.3-0.4-0.6-0.7-1-1c-0.3-0.3-0.7-0.7-0.9-1c-0.4-0.6-0.8-1.1-1.2-1.7c-0.3-0.5-0.6-1.1-0.8-1.7c0-0.1-0.1-0.2-0.3-0.3
		c-0.1,0-0.2-0.1-0.4-0.1c-0.2,0-0.3-0.1-0.5-0.2c-0.1-0.1-0.2-0.2-0.4-0.3c0.1,0.3,0.1,0.5,0.2,0.8c0.2,0.5,0.4,0.9,0.7,1.3
		c0.1,0.1,0.2,0.3,0.3,0.4c0.1,0.1,0.1,0.2,0.3,0.2c0,0,0,0,0,0.1c0,0-0.1,0-0.1,0c-0.1,0-0.2-0.1-0.2-0.2c-0.2-0.2-0.3-0.5-0.5-0.7
		c-0.3-0.4-0.5-0.8-0.6-1.3c-0.1-0.5-0.3-0.9-0.4-1.4c-0.1-0.3-0.1-0.6-0.1-0.9c0-0.1,0-0.3-0.1-0.4c0,0,0,0,0,0c0,0.1,0,0.1,0,0.2
		c-0.1,0.4-0.2,0.7-0.4,1c-0.1,0.2-0.2,0.5-0.3,0.7c0,0.1-0.1,0.2-0.2,0.3c0,0-0.1,0-0.1,0c-0.1,0,0-0.1,0-0.1c0,0,0.1-0.1,0.1-0.1
		c0.1-0.2,0.2-0.5,0.3-0.7c0.2-0.4,0.4-0.8,0.4-1.2c0-0.1,0.1-0.3,0.1-0.4c0.1-0.2,0.2-0.4,0.2-0.6c0-0.5,0-1.1-0.1-1.6
		c-0.1-0.7-0.4-1.4-0.7-2c-0.1-0.2-0.2-0.4-0.3-0.6c-0.2-0.5-0.5-0.8-1-1.1c-0.3-0.1-0.5-0.3-0.8-0.4c0,0-0.1,0-0.1,0c0,0,0,0,0,0
		c0.1,0.1,0.2,0.2,0.4,0.3c0.1,0.1,0.2,0.1,0.2,0.2c0.5,0.7,1,1.3,1.4,2c0.2,0.5,0.4,1,0.5,1.6c0,0.4,0,0.9-0.2,1.3
		c-0.3,1.1-0.8,2.2-1.4,3.2c-0.4,0.7-0.9,1.2-1.6,1.6c-0.7,0.4-1.4,0.8-2.1,1.2c-0.6,0.3-1.2,0.7-1.9,0.9c-1.2,0.4-2.4,0.6-3.7,0.5
		c-0.8,0-1.5-0.1-2.3-0.4c-1.1-0.4-2.1-1-2.7-2c-0.4-0.5-0.7-1-1-1.6c-0.3-0.5-0.5-1-0.6-1.6c-0.1-0.3,0-0.7,0-1
		c0.1-0.9,0.3-1.7,0.6-2.5c0,0,0-0.1,0-0.1c-0.1,0-0.1,0.1-0.1,0.1c-0.2,0.2-0.4,0.5-0.5,0.7c-0.1,0.3-0.2,0.6-0.3,1
		c0,0.1-0.1,0.3-0.1,0.4c0,0.4-0.1,0.8-0.2,1.1c-0.1,0.4-0.2,0.8-0.3,1.2c-0.1,0.3-0.3,0.6-0.5,0.9c0,0.1-0.1,0.1-0.1,0.1
		c0,0-0.1,0.1-0.1,0c0,0,0-0.1,0-0.2c0.2-0.1,0.2-0.2,0.3-0.4c0.2-0.3,0.3-0.7,0.4-1.1c0.1-0.4,0.2-0.9,0.3-1.3c0-0.1,0-0.2,0-0.3
		c0.1-0.7,0.4-1.3,0.6-2c0.1-0.2,0.3-0.3,0.4-0.4c0,0,0.1-0.1,0.1-0.1c0-0.1,0.1-0.3,0.1-0.4c0.1-0.3,0.2-0.5,0.4-0.8
		c0.9-1.1,1.9-2,3.1-2.6c0.7-0.4,1.4-0.6,2.1-0.7c0.2,0,0.5-0.1,0.7-0.2c0.5-0.1,1-0.3,1.6-0.4c0.6-0.1,1.3-0.1,1.9-0.1
		c0.6,0,1.2,0.1,1.7,0.2C32.4,7,32.7,7.1,33,7.3c0.1,0.1,0.3,0.2,0.4,0.2c0.5,0.2,0.9,0.4,1.3,0.7c0,0,0,0,0.1,0
		c1-0.8,2-1.7,2.7-2.8c0,0,0.1-0.1,0.1-0.1c0-0.1-0.2-0.1-0.1-0.3c0.1-0.1,0.2,0,0.3,0.1C37.9,5,38,4.7,38.1,4.4
		c0.2-0.5,0.2-1.1,0.1-1.6c0-0.2-0.1-0.5-0.3-0.6c-0.2-0.2-0.4-0.2-0.6-0.1c-0.1,0.1-0.2,0.2-0.3,0.3c-0.1,0.2-0.2,0.3-0.3,0.5
		c-0.3,0.6-0.7,1-1.2,1.3C35,4.5,34.4,4.7,33.8,5c-1,0.5-2.1,0.9-3.2,1.3c-0.6,0.2-1.1,0.2-1.7,0.2c-0.6,0-1.2-0.1-1.8-0.1
		c-0.4,0-0.8,0-1.2,0c-1.1-0.1-2-0.5-2.7-1.3c-0.1-0.1-0.2-0.3-0.3-0.4c-0.3-0.4-0.6-0.8-0.8-1.3c-0.2-0.7-0.7-1-1.4-1.1
		c0,0-0.1,0-0.1,0c-0.1,0-0.1,0-0.2,0c-0.2-0.1-0.3,0-0.5,0c-0.2,0.1-0.5,0.2-0.6,0.4c-0.1,0.1-0.1,0.2-0.1,0.3c0,0.3,0,0.6,0.1,0.9
		c0,0.2,0.1,0.3,0.2,0.5c0.1,0.2,0.2,0.4,0.2,0.6c0.1,0.4,0.2,0.7,0.4,1.1c0.1,0.2,0.2,0.4,0.4,0.6c0.3,0.4,0.6,0.9,1,1.3
		c0,0,0,0.1,0.1,0.1c0.2,0.3,0.5,0.5,0.8,0.7c0.1,0.1,0.1,0.1,0.2-0.1c0,0,0-0.1,0.1-0.1c0,0,0.1,0.1,0.1,0.1c0,0,0,0.1,0,0.1
		c0,0.2-0.1,0.3-0.3,0.2c-0.2-0.1-0.4-0.2-0.6-0.4c-0.1-0.1-0.2-0.2-0.3-0.4c-0.3-0.5-0.7-0.9-1-1.4c-0.3-0.5-0.5-1-0.7-1.5
		c-0.1-0.3-0.2-0.6-0.4-1C19.1,4,19,3.8,19,3.5c0-0.2,0-0.4,0-0.6c0-0.7,0.6-1,1-1c0.3,0,0.6,0.1,0.9,0.2c0.6,0.1,0.9,0.5,1.2,1
		c0.2,0.4,0.3,0.8,0.6,1.1c0.1,0.1,0.2,0.1,0.3,0.1c0.4-0.1,0.8,0,1.2-0.1c0.3,0,0.6,0,0.9,0c0.4,0,0.7,0.1,1.1,0.1
		c0.1,0,0.1,0,0.2,0c0.5,0.1,1.1,0.3,1.6,0.4c0.4,0.1,0.8,0.1,1.1,0.1c1,0,2,0,3.1,0c0.4,0,0.7,0.1,1.1,0.1c0,0,0.1,0,0.1,0
		c0.5-0.2,0.9-0.4,1.4-0.6c0.5-0.2,1-0.5,1.4-0.9c0.2-0.2,0.3-0.4,0.4-0.6c0.1-0.2,0.3-0.5,0.4-0.7c0.2-0.2,0.4-0.3,0.7-0.3
		c0.2,0,0.3,0.1,0.4,0.2c0.2,0.2,0.3,0.5,0.3,0.8c0.1,0.8-0.1,1.6-0.5,2.4c0,0,0,0,0,0c0,0,0,0,0,0c0.1,0.1,0.3,0.1,0.4,0.2
		c0.6,0.2,1,0.7,1.2,1.3c0.1,0.2,0.1,0.4,0,0.6c-0.1,0.2-0.1,0.3,0,0.5c0.1,0.1,0.1,0.2,0,0.3c-0.1,0.1-0.1,0.1-0.2,0.1
		c-0.2-0.1-0.3,0-0.2,0.2c0.1,0.3-0.1,0.4-0.3,0.4c-0.1,0-0.1,0-0.2,0c0,0,0,0,0,0c0,0.3,0,0.7,0,1c0,0.1,0,0.2,0,0.2
		c0.1,0.2,0.2,0.4,0.2,0.5c0.1,0.2,0.2,0.3,0.4,0.4c0.1,0,0.3,0.1,0.4,0.1c0.6,0.1,1.1,0.4,1.6,0.7c0.1,0,0.2,0.1,0.2,0.2
		c0.5,0.5,1.2,0.8,1.9,1.1c0.4,0.1,0.7,0.3,1.1,0.4c0.4,0.1,0.8,0.2,1.2,0.2c0.5,0,1,0,1.6,0.1c0.1,0,0.2,0,0.3,0
		c0.2,0,0.4-0.1,0.5-0.3c0.1-0.2,0.2-0.4,0.3-0.6c0-0.1,0.1-0.1,0.1-0.1c0.2-0.1,0.2-0.2,0.1-0.4c0-0.1-0.1-0.2-0.1-0.2
		c0-0.1-0.1-0.2-0.1-0.3c-0.1-0.2,0-0.3,0.2-0.4c0.1,0,0.1-0.1,0.2-0.1c0.2-0.1,0.2-0.3,0-0.4c-0.2-0.2-0.2-0.5-0.2-0.7
		c0-0.3,0-0.6,0-0.9c0-0.2-0.1-0.4-0.2-0.6c-0.4-0.5-0.8-1-1.2-1.4c-0.8-0.8-1.6-1.6-2.5-2.2c-0.6-0.4-1.2-0.7-1.8-1.1
		c-1.3-0.8-2.7-1.3-4.1-1.8c-1-0.4-2.1-0.6-3.2-0.8c-0.7-0.1-1.3-0.2-2-0.3c-1.1-0.1-2.2-0.3-3.4-0.3c-1.2-0.1-2.3-0.2-3.5-0.2
		c-0.4,0-0.9,0.1-1.3,0.1c-0.4,0-0.8,0-1.2,0c-0.5,0-1.1,0-1.6,0.1c-0.6,0.1-1.1,0.2-1.7,0.3c-1,0.2-2,0.4-3,0.6
		c-1.2,0.2-2.1,0.7-3.1,1.3c-0.4,0.3-0.8,0.5-1.3,0.7c-0.4,0.1-0.7,0.3-1,0.4c-0.1,0-0.2,0.1-0.2,0.1c-0.4,0.2-0.7,0.4-1.2,0.5
		c-0.1,0-0.2,0.1-0.3,0.1c-0.2,0.1-0.5,0.1-0.7,0.1c0,0-0.1,0-0.1,0C9.6,5,9.2,5.2,8.9,5.3C9,5.5,8.8,5.5,8.8,5.5c0,0,0,0,0,0
		c0,0.1-0.1,0.2-0.1,0.3c-0.1,0.3,0,0.5,0,0.8c0,0.3,0.1,0.6,0,0.9c0,0.2-0.1,0.3-0.1,0.5c0,0.4,0,0.9,0,1.3c0,0.1,0,0.2,0.1,0.2
		c0,0.1,0.1,0.2,0.1,0.4c0,0.2-0.1,0.3-0.2,0.3c-0.1,0-0.1,0-0.2,0c-0.2,0-0.2,0-0.3,0.2C8,10.6,7.9,10.8,7.9,11
		c-0.1,0.3,0.1,0.6,0.4,0.7c0.1,0,0.2,0.1,0.4,0.1c0.2,0.1,0.3,0.1,0.4,0.3c0.1,0.2,0.3,0.5,0.2,0.8c0,0.1,0,0.2,0.2,0.2
		c0.3,0,0.7,0,1,0c0.1,0,0.3,0,0.4,0c0.5,0.2,1.1,0.2,1.6,0.1c0.5-0.1,0.9-0.2,1.4-0.4c0.8-0.2,1.5-0.6,2.3-0.9
		c0.8-0.3,1.6-0.8,2.3-1.2c0.2-0.1,0.3-0.1,0.5-0.2c0,0,0.1,0,0.1-0.1C19,9.9,19,9.4,18.9,9c0-0.1,0-0.1-0.1-0.2
		c-0.1-0.2-0.1-0.4,0-0.7c-0.2,0-0.3,0-0.5-0.1c-0.2,0-0.4-0.1-0.6-0.2c-0.1,0-0.1-0.1,0-0.2c0.1-0.1,0.3-0.2,0.4-0.4
		c-0.1-0.1-0.2-0.2-0.4-0.2c-0.1,0-0.2,0-0.3,0.1c-0.2,0-0.3,0-0.3-0.2c0-0.2,0-0.4,0-0.5c0-0.5,0.3-0.8,0.7-1.1
		C18,5.2,18.2,5.1,18.4,5c0.1-0.1,0.3-0.2,0.5-0.1c0.1,0,0.2,0.1,0.2,0.2c0,0,0,0,0,0c-0.1-0.2-0.2-0.2-0.4-0.1
		c-0.4,0.2-0.8,0.5-1.1,0.9c-0.2,0.3-0.2,0.7-0.3,1c0,0.1,0,0.2,0.2,0.1c0.1,0,0.1,0,0.2-0.1c0.3-0.1,0.5,0,0.6,0.3
		c0,0.1,0,0.1-0.1,0.2c-0.1,0.1-0.2,0.2-0.4,0.3c0.2,0.1,0.4,0.1,0.6,0.2c0.2,0,0.3,0.1,0.5,0.1C19,8,19.1,8,19,8.1
		c-0.1,0.2-0.1,0.3,0,0.5c0.1,0.3,0.2,0.7,0.2,1c0,0.2,0,0.5,0,0.7c0,0,0,0.1,0,0.1c0,0.1,0,0.1-0.2,0.2c-0.1,0-0.3,0.1-0.4,0.2
		c-1,0.7-2.1,1.2-3.3,1.6c-0.2,0.1-0.4,0.2-0.6,0.3c-0.1,0.1-0.3,0.1-0.4,0.2c-0.5,0.1-0.9,0.3-1.4,0.4c-0.4,0.1-0.8,0.2-1.3,0.1
		c-0.2,0-0.4,0-0.6-0.1c-0.5-0.1-1-0.1-1.5-0.1c-0.1,0-0.3,0-0.4,0C9,13.2,9,13.1,9,13c0,0,0-0.1,0-0.1c0.1-0.2,0-0.4-0.1-0.6
		C8.8,12.1,8.7,12,8.5,12c-0.1,0-0.2-0.1-0.3-0.1c-0.4-0.2-0.6-0.4-0.5-0.9c0-0.2,0.1-0.4,0.1-0.6c0.1-0.3,0.2-0.4,0.5-0.4
		c0,0,0.1,0,0.1,0c0,0,0,0,0,0c0-0.1-0.1-0.2-0.1-0.3c0-0.1-0.1-0.2-0.1-0.3c0-0.5,0-1.1,0-1.6c0-0.1,0-0.2,0-0.2
		c0.1-0.3,0.1-0.5,0.1-0.8c0-0.3-0.1-0.5-0.1-0.8C8.3,5.7,8.4,5.4,8.7,5.2c0.5-0.4,1-0.6,1.7-0.7c0.1,0,0.2,0,0.3-0.1
		c0.5-0.2,1-0.4,1.5-0.6c0.1,0,0.1-0.1,0.2-0.1c0.4-0.2,0.7-0.5,1.1-0.7c0.2-0.1,0.4-0.3,0.5-0.4c0,0,0.1-0.1,0.1,0
		c0,0,0.1,0.1,0.1,0.1c0,0,0,0.1-0.1,0.1c0,0-0.1,0-0.1,0.1c-0.2,0.1-0.4,0.3-0.6,0.4c0,0-0.1,0.1-0.2,0.1c0.4-0.2,0.9-0.3,1.3-0.6
		c0.7-0.5,1.4-1,2.1-1.2c0.5-0.2,1-0.3,1.5-0.4c1.1-0.2,2.2-0.5,3.4-0.7c0.6-0.1,1.3-0.2,1.9-0.2c0.9,0,1.8,0,2.7-0.1c0,0,0,0,0.1,0
		C26.8,0.2,27.3,0.2,27.8,0.2z M26,7.5C25.9,7.5,25.9,7.5,26,7.5c-0.5,0.1-1,0.2-1.4,0.4c-0.9,0.5-1.7,1.1-2.4,1.7
		c-0.3,0.3-0.6,0.6-0.9,0.9c-0.4,0.4-0.5,0.8-0.6,1.3c0.2,0.1,0.2,0.1,0.1,0.2c-0.1,0-0.1-0.1-0.2-0.1c0,0,0,0.1,0,0.1
		c-0.2,0.9-0.5,1.7-0.6,2.6c0,0.3-0.1,0.6,0,0.9c0.1,0.6,0.3,1.1,0.6,1.6c0.3,0.6,0.8,1.2,1.2,1.8c0.2,0.2,0.4,0.4,0.6,0.6
		c0.7,0.6,1.5,1,2.3,1.2c0.7,0.2,1.5,0.2,2.2,0.3c1.2,0,2.4-0.2,3.6-0.7c1.3-0.5,2.5-1.2,3.6-1.9c0.7-0.4,1.3-1,1.7-1.7
		c0.5-0.9,0.9-1.9,1.2-2.9c0.2-0.5,0.3-0.9,0.2-1.4c-0.1-0.3-0.1-0.6-0.2-0.8c-0.2-0.4-0.4-0.8-0.6-1.2c-0.1-0.2-0.2-0.3-0.3-0.5
		c-0.1-0.1-0.2-0.2-0.3-0.3c-0.2-0.3-0.5-0.6-0.8-0.9c0,0-0.1,0-0.1,0c-0.1,0-0.1,0-0.2-0.1c0,0,0-0.1-0.1-0.1
		c-0.3-0.3-0.7-0.5-1-0.6c-0.2-0.1-0.5-0.2-0.7-0.4c-0.1-0.1-0.2-0.1-0.3-0.1c-0.6-0.2-1.3-0.3-1.9-0.4c-1-0.1-2,0-2.9,0.3
		c0,0-0.1,0-0.1,0c0.2,0,0.3,0,0.5,0c0.2,0,0.3,0,0.5,0c0.3,0,0.6,0,1,0c0,0,0.1,0,0.1,0c0,0,0,0,0,0c-0.2,0-0.4,0-0.6,0
		c0.2,0.1,0.4,0.2,0.7,0.3c0.1,0.1,0.2,0.2,0.2,0.3c0.1,0.3-0.1,0.7-0.4,0.9c-0.5,0.3-1.3-0.1-1.2-0.7c0-0.1,0-0.2,0-0.2
		c0-0.1,0.1-0.3,0.2-0.4c-0.1,0.1-0.1,0.2-0.1,0.3c0,0.1,0,0.2,0,0.3c0,0.2,0.1,0.4,0.2,0.5c0.1,0.1,0.3,0.2,0.5,0.2
		c0.4,0,0.6-0.1,0.7-0.5c0.1-0.3,0-0.6-0.4-0.7c-0.2-0.1-0.5-0.2-0.7-0.2c-0.2,0-0.5,0-0.6,0.2c0,0,0,0,0,0c0,0,0,0,0,0
		c0.1-0.1,0.1-0.1,0.2-0.2c-0.4,0-0.9,0-1.3,0c-0.4,0-0.7,0.3-1,0.4c0.1,0,0.2,0,0.3,0c0.3,0,0.6,0.1,0.8,0.4c0.2,0.3,0,0.7-0.3,0.8
		c-0.3,0.1-0.5,0.1-0.8,0c-0.1-0.1-0.3-0.2-0.3-0.3c-0.1-0.2,0.1-0.6,0.3-0.6c0,0-0.1,0-0.1,0.1c-0.4,0.3-0.2,0.7,0.1,0.8
		c0.3,0.1,0.5,0.1,0.8,0c0.1-0.1,0.2-0.2,0.2-0.3C27,8.3,26.8,8,26.5,7.9c-0.4-0.1-0.8,0-1.1,0.2c0,0-0.1,0-0.1,0c0,0,0,0,0,0
		c0,0,0.1,0,0.1-0.1C25.4,8,25.5,8,25.5,7.8c0,0,0-0.1,0.1-0.1C25.7,7.7,25.8,7.6,26,7.5z M33.2,5C33.2,5,33.2,5,33.2,5
		c-0.7-0.1-1.4-0.1-2.1-0.1c-0.9,0-1.7,0-2.6,0c-0.2,0-0.4,0-0.6-0.1c-0.5-0.1-0.9-0.2-1.4-0.3c-0.5-0.1-1-0.1-1.4-0.2
		c-0.5,0-1.1,0-1.6,0c-0.2,0-0.3,0-0.5,0.1c0.2,0.2,0.3,0.3,0.4,0.4C24,5.6,24.8,6,25.9,6.1c0.4,0,0.7,0,1.1,0
		c0.6,0,1.2,0.1,1.8,0.1c0.5,0,1.1,0,1.6-0.1c0.7-0.2,1.3-0.4,1.9-0.7C32.6,5.3,32.9,5.2,33.2,5z M20,2c-0.4,0-0.8,0.3-0.8,0.6
		C19.4,2.3,19.6,2.1,20,2z"/>
	<path d="M0.2,19.7c0.1-0.3,0.1-0.6,0.2-0.9c0.1-0.5,0.4-1,0.6-1.5c0.1-0.2,0.2-0.3,0.4-0.4c0.3-0.1,0.6-0.2,1-0.2
		c0.3,0,0.6,0.1,0.8,0.4c0.5,0.6,0.9,1.3,1,2c0,0.2,0,0.4,0,0.6c0,0.1,0,0.3,0.1,0.4c0,0.4-0.1,0.6-0.4,0.7
		c-0.2,0.1-0.3,0.1-0.5,0.1c-0.3,0-0.6,0-0.9,0c-0.3,0-0.6-0.2-0.8-0.5c-0.2-0.4-0.3-0.8-0.3-1.3c0-0.3,0-0.6,0.2-0.9
		c0.1-0.1,0.2-0.3,0.3-0.4c0,0,0.1,0,0.1,0c0,0,0,0.1,0,0.1c-0.2,0.2-0.3,0.5-0.3,0.8c0,0.4-0.1,0.8,0.1,1.3C2,20.8,2.2,21,2.8,21
		c0.3,0,0.7,0,1-0.1c0.4-0.1,0.5-0.3,0.4-0.6c0-0.3-0.1-0.5-0.1-0.8c0-0.2-0.1-0.5-0.2-0.7c-0.2-0.4-0.4-0.8-0.6-1.2
		C3,17.1,2.6,16.9,2,17c0,0-0.1,0-0.1,0c-0.4,0.1-0.6,0.3-0.8,0.6c-0.3,0.6-0.6,1.2-0.7,1.9c-0.1,0.3-0.1,0.5,0,0.8
		c0,0.1,0.1,0.3,0.2,0.4c0.1,0.2,0.2,0.4,0.4,0.6c0.2,0.3,0.3,0.6,0.5,0.9c0.3,0.4,0.7,0.6,1.1,0.6c0.6,0.1,1.2,0,1.8,0
		c1.2-0.1,2.4-0.5,3.5-0.9c0.7-0.2,1.4-0.5,2.1-0.6c0.8-0.2,1.5-0.3,2.3-0.4c0.4-0.1,0.8,0,1.2,0c0.1,0,0.3,0.1,0.4,0.2
		c-0.6-0.2-1.3-0.1-1.9,0c-0.9,0.2-1.9,0.3-2.8,0.6c-0.7,0.2-1.5,0.5-2.2,0.7c-0.8,0.2-1.6,0.4-2.4,0.5C3.7,23,3,23,2.3,22.9
		c-0.4-0.1-0.8-0.3-1-0.7c-0.1-0.2-0.3-0.5-0.4-0.7c-0.1-0.2-0.2-0.3-0.3-0.5c-0.1-0.2-0.3-0.4-0.4-0.7C0.2,20,0.2,19.9,0.2,19.7z"
		/>
	<path d="M3,20.3c-0.4-0.2-0.7-0.6-0.8-1.1c0-0.1-0.1-0.2-0.1-0.2c-0.1-0.2-0.1-0.4,0-0.6c0-0.1,0.1-0.1,0.1-0.2c0-0.1,0-0.1,0-0.1
		c-0.3-0.2-0.6-0.2-0.9,0.1c-0.2,0.3-0.4,0.7-0.4,1c0,0.1,0,0.1,0,0.2C1,19.6,1,20,1,20.3c0.1,0.4,0.3,0.8,0.7,1
		c0.4,0.2,0.8,0.5,1.1,0.7c0.3,0.2,0.6,0.2,0.9,0.2c0.5,0,0.9-0.1,1.4-0.2c0.5-0.2,1-0.3,1.5-0.4c0.2,0,0.4-0.1,0.5-0.2
		c0.2-0.1,0.4-0.2,0.7-0.3c0.2-0.1,0.5-0.2,0.7-0.3c0.3-0.1,0.6-0.3,0.9-0.4c0.2-0.1,0.4-0.1,0.6-0.1c0.4-0.1,0.7-0.2,1-0.3
		c0.5-0.2,0.9-0.3,1.4-0.3c0.4,0,0.8,0,1.2,0.1c0.3,0,0.5,0.1,0.8,0.2c0,0,0,0,0.1,0.1c0,0-0.1,0-0.1,0c-0.4-0.2-0.9-0.2-1.4-0.2
		c-0.4,0-0.7,0-1.1,0c-0.2,0-0.5,0.1-0.7,0.2c-0.5,0.2-0.9,0.4-1.5,0.4c-0.5,0.1-0.9,0.3-1.3,0.5c-0.3,0.1-0.5,0.3-0.8,0.3
		c-0.1,0-0.2,0.1-0.3,0.1c-0.4,0.2-0.7,0.3-1.1,0.4C6,21.9,5.6,22,5.3,22.1c-0.6,0.2-1.2,0.3-1.9,0.2c-0.2,0-0.4-0.1-0.6-0.2
		c-0.4-0.2-0.7-0.4-1.1-0.7c-0.5-0.3-0.8-0.8-0.9-1.4c0-0.2,0-0.5-0.1-0.7c-0.1-0.3,0-0.5,0.1-0.7c0.1-0.3,0.2-0.5,0.4-0.7
		c0.3-0.3,0.6-0.3,0.9-0.2c0.3,0.2,0.5,0.4,0.7,0.7c0.3,0.4,0.5,0.9,0.6,1.4c0,0.1,0,0.3,0,0.4c0,0.2-0.2,0.2-0.3,0.2
		C3.1,20.4,3.1,20.3,3,20.3z M2.4,18.1c-0.1,0.2-0.2,0.4-0.1,0.7c0,0.2,0.1,0.3,0.1,0.5C2.5,19.7,2.7,20,3,20.2c0.1,0,0.1,0,0.2,0.1
		c0-0.1,0.1-0.2,0.1-0.2c0,0,0,0,0-0.1c0-0.4-0.2-0.8-0.4-1.1C2.8,18.6,2.6,18.3,2.4,18.1z"/>
	<path d="M18.7,16.4c0,0.1,0,0.2-0.1,0.2c-0.4,0.2-0.7,0.4-1.1,0.4c-0.1,0-0.3,0-0.4,0c-0.4-0.1-0.5,0-0.6,0.4
		c0,0.2-0.1,0.4-0.3,0.6c-0.4,0.5-0.6,1-0.9,1.5c0,0.1-0.1,0.2-0.1,0.3c-0.1,0.4-0.2,0.7-0.4,1c-0.4,0.6-0.8,1.3-1.2,1.9
		c-0.4,0.6-0.8,1.2-1.2,1.7c-0.3,0.4-0.4,0.7-0.5,1.2c-0.1,0.7-0.2,1.4-0.3,2c-0.1,0.3-0.2,0.7-0.2,1c-0.1,0.5-0.1,0.9-0.1,1.4
		c0,0.7,0,1.4-0.1,2.1c0,0.3,0,0.5,0,0.8c0,0.1-0.1,0.3-0.1,0.4c0,0.1,0,0.2,0.1,0.2c0,0,0,0,0,0.1c0,0,0,0.1-0.1,0.1
		c-0.1,0-0.2,0-0.2-0.2c0-0.1,0-0.2,0-0.3c0-0.2,0.1-0.4,0.1-0.7c0-0.6,0.1-1.3,0.1-1.9c0-0.3,0-0.7,0-1c0-0.6,0.1-1.2,0.2-1.8
		c0.1-0.8,0.3-1.5,0.4-2.3c0.1-0.5,0.3-0.9,0.5-1.2c0.4-0.5,0.7-1,1.1-1.5c0.2-0.3,0.4-0.6,0.6-0.9c0.3-0.4,0.5-0.8,0.7-1.2
		c0.2-0.3,0.3-0.5,0.4-0.8c0.2-0.7,0.6-1.3,1-1.8c0.2-0.2,0.3-0.5,0.4-0.8c0-0.1,0-0.1,0-0.2c0.1-0.2,0.3-0.3,0.5-0.3
		c0.1,0,0.1,0,0.2,0c0.3,0.1,0.6,0,0.9-0.1c0.1,0,0.2-0.1,0.3-0.1C18.5,16.6,18.6,16.5,18.7,16.4z"/>
	<path d="M4,10.4c0.2-0.1,0.3-0.2,0.5-0.3C4.6,9.9,4.8,9.9,5,9.9c0.1,0,0.3,0,0.4-0.1C6,9.8,6.3,10,6.6,10.5c0.2,0.3,0.3,0.6,0.2,1
		c0,0.2-0.2,0.4-0.4,0.5c0,0-0.1,0-0.1,0c0,0,0-0.1,0-0.1c0.3-0.1,0.4-0.4,0.3-0.7c0-0.4-0.2-0.7-0.4-1C6.1,10,5.9,9.9,5.6,9.9
		c-0.2,0-0.4,0-0.6,0.1c-0.4,0.1-0.7,0.2-1,0.5c-0.3,0.3-0.7,0.7-0.7,1.1c-0.1,0.8-0.2,1.6,0.2,2.3c0,0.1,0.1,0.1,0.1,0.2
		c0,0.1,0,0.1,0.1,0.2c0.1-0.1,0.1-0.2,0.2-0.3c0.4-0.3,0.7-0.6,1.1-0.9C5.2,13,5.5,13,5.8,13.1c0.1,0,0.2,0.1,0.3,0.2c0,0,0,0,0,0
		c0,0-0.1,0-0.1,0c-0.1,0-0.1,0-0.2-0.1c-0.3-0.1-0.5-0.1-0.8,0.1c-0.3,0.2-0.5,0.4-0.8,0.6c-0.2,0.2-0.4,0.3-0.5,0.5
		c-0.2,0.2-0.4,0.5-0.5,0.7c-0.2,0.2-0.4,0.5-0.6,0.7c-0.1,0.1-0.2,0.3-0.2,0.5c0,0.1,0,0.1,0,0.2c-0.1-0.2-0.1-0.6,0.1-0.7
		c0.3-0.4,0.6-0.7,0.8-1.1c0.1-0.1,0.1-0.2,0.2-0.3c0.1-0.1,0.1-0.2,0-0.3c-0.1-0.1-0.1-0.2-0.2-0.4c-0.2-0.4-0.3-0.7-0.3-1.1
		c0-0.4,0-0.8,0.1-1.2c0-0.3,0.2-0.5,0.4-0.8C3.7,10.7,3.9,10.5,4,10.4C4,10.4,4,10.4,4,10.4z"/>
	<path d="M8,6.1C7.5,5.9,7,5.9,6.6,6.1c-0.5,0.2-1,0.4-1.4,0.7C4.8,7,4.5,7.2,4.2,7.4C3.6,7.9,3.3,8.5,3.2,9.2
		c-0.1,0.4-0.1,0.7,0,1.1c0,0.1,0.1,0.2,0.1,0.3c0,0,0,0.1,0,0.1c0,0,0,0,0,0c0-0.1-0.1-0.1-0.1-0.2C3.1,10.3,3.1,10,3.1,9.7
		c0-0.8,0.3-1.5,0.8-2.2C4.2,7.2,4.6,6.9,5,6.7C5.5,6.4,5.9,6.2,6.3,6C6.9,5.7,7.5,5.7,8,6c0,0,0.1,0.1,0.1,0.1
		c0,0.1-0.1,0.1-0.1,0.2c0,0-0.1,0-0.1-0.1C7.9,6.2,8,6.1,8,6.1z"/>
	<path d="M5.5,14.4c0,0,0.1,0,0.1,0.1c0.5,0.3,0.7,0.7,0.7,1.2c0,0.1,0,0.3,0,0.4c0,0.2-0.2,0.4-0.4,0.4c-0.4,0.1-0.8-0.1-1.1-0.4
		c-0.3-0.3-0.5-0.6-0.6-1c-0.2,0.3-0.5,0.5-0.7,0.7C3.2,16,3.2,16.3,3,16.6c0.1-0.5,0.3-0.9,0.6-1.2C3.8,15.3,4,15,4.2,14.8
		c0.4-0.3,0.8-0.6,1.3-0.7c0.1,0,0.2,0,0.2,0c0,0,0,0.1,0,0.1c0,0-0.1,0-0.1,0c-0.1,0-0.2,0-0.3,0c-0.4,0.1-0.8,0.3-1.1,0.6
		c0,0,0,0.1,0,0.1c0,0,0,0,0,0c0.2,0.5,0.5,1,1,1.3c0.1,0,0.2,0.1,0.3,0.1c0.4,0.1,0.7-0.1,0.7-0.5C6.3,15.2,6.1,14.7,5.5,14.4
		C5.5,14.4,5.5,14.4,5.5,14.4C5.5,14.4,5.5,14.4,5.5,14.4z"/>
	<path d="M6.1,13.5C6.1,13.5,6.2,13.5,6.1,13.5C6.6,14,7,14.6,7.3,15.2c0.3,0.6,0.3,1.3,0,1.9c-0.2,0.5-0.7,0.7-1.3,0.6
		c-0.3-0.1-0.6-0.1-0.8-0.2c-0.4-0.1-0.7-0.4-1-0.7c-0.2-0.2-0.3-0.4-0.3-0.6c0,0,0-0.1,0-0.1c0,0,0-0.1,0.1-0.1c0,0,0.1,0,0.1,0.1
		c0.1,0.6,0.6,1,1.1,1.3c0.1,0.1,0.3,0.1,0.4,0.1c0.1,0,0.3,0.1,0.4,0.1c0.6,0.2,1.2-0.1,1.4-0.7c0.1-0.4,0.1-0.8,0-1.2
		c-0.1-0.3-0.2-0.6-0.4-0.9c-0.2-0.4-0.5-0.7-0.8-1C6.1,13.6,6.1,13.5,6.1,13.5C6.1,13.5,6.1,13.5,6.1,13.5z"/>
	<path d="M4.1,11.7c-0.2,0.4-0.3,0.7-0.2,1.1c0,0.2,0,0.4,0.1,0.5c0,0,0,0,0,0c0-0.1,0-0.3-0.1-0.4c-0.3-1,0.5-2.3,1.2-2.7
		c0.3-0.2,0.6-0.1,0.8,0.2c0.2,0.2,0.3,0.5,0.3,0.8c0,0.2-0.2,0.4-0.3,0.6c-0.3,0.2-0.6,0.4-1,0.3c-0.2,0-0.5-0.1-0.6-0.3
		C4.2,11.8,4.1,11.7,4.1,11.7z M4.1,11.6c0,0,0.1,0,0.1,0.1c0.1,0.2,0.2,0.2,0.3,0.3C5,12.1,5.8,11.8,6,11.3c0.1-0.1,0.1-0.3,0-0.4
		c-0.1-0.2-0.2-0.3-0.3-0.4c-0.1-0.2-0.3-0.2-0.5-0.1C4.7,10.6,4.4,11.1,4.1,11.6z"/>
	<path d="M4,10.4c-0.2,0-0.3-0.1-0.2-0.3c0.2-0.5,0.4-1,0.7-1.5C4.7,8.1,5,7.7,5.4,7.4c0.5-0.4,1-0.6,1.7-0.5c0.3,0,0.6,0,0.8,0.1
		C8,7,8.1,7,8.1,7c0,0,0,0,0,0C8.1,7,8,7,8,7C7.6,7,7.1,7,6.7,7C6,7.1,5.4,7.5,5,8.1C4.6,8.6,4.4,9,4.2,9.6c0,0.1-0.1,0.2-0.1,0.2
		c0,0.1-0.1,0.2-0.2,0.3c0,0-0.1,0.1,0,0.1C4,10.3,4,10.3,4,10.4C4,10.4,4,10.4,4,10.4z"/>
	<path d="M17.3,9.3c-0.2,0-0.3,0.1-0.5,0.1c-0.6,0.2-1.2,0.4-1.7,0.6c-1,0.3-2,0.5-3,0.5c-0.4,0-0.8,0-1.1,0.1c-0.2,0-0.3,0-0.5-0.1
		c0.2,0.1,0.4,0,0.6,0c0.4,0,0.8,0,1.2-0.1c1.3-0.1,2.5-0.4,3.7-0.8c0.4-0.2,0.8-0.3,1.2-0.3C17.2,9.2,17.2,9.2,17.3,9.3
		C17.3,9.3,17.3,9.3,17.3,9.3z"/>
	<path d="M16.7,7.8c0,0,0,0.1-0.1,0.1c-0.1,0.1-0.3,0.2-0.4,0.2c-0.7,0.3-1.4,0.5-2,1c-0.4,0.2-0.8,0.3-1.2,0.4
		c-0.9,0.2-1.8,0.4-2.8,0.4c-0.2,0-0.4,0-0.6,0c0.1,0,0.2,0,0.3,0c1.2,0,2.4-0.2,3.6-0.5C13.7,9.3,14,9.1,14.2,9
		c0.5-0.4,1.1-0.6,1.7-0.8C16.2,8.1,16.4,8,16.7,7.8C16.6,7.8,16.6,7.8,16.7,7.8C16.6,7.8,16.6,7.8,16.7,7.8z"/>
	<path d="M27,28.4c0.2,0,0.4,0,0.5,0c0.3,0.1,0.7,0.1,1,0c0.4,0,0.8,0,1.1-0.1c0.2,0,0.4-0.1,0.6-0.1c0.3,0,0.6,0,0.9,0
		c0.6,0,1.1-0.1,1.6-0.3c0.4-0.1,0.7-0.1,1.1-0.1c0,0,0,0,0.1,0c0,0,0,0,0,0c-0.1,0-0.1,0-0.1,0c-0.4,0-0.7,0-1.1,0.1
		c-0.1,0-0.1,0-0.2,0.1c-0.4,0.1-0.8,0.2-1.3,0.2c-0.2,0-0.5,0-0.7,0c-0.3,0-0.7,0.1-1,0.1c-0.6,0-1.1,0.1-1.7,0.1
		c-0.3,0-0.5-0.1-0.8-0.1C27,28.4,27,28.4,27,28.4C27,28.4,27,28.4,27,28.4z"/>
	<path d="M14.4,26.2c0.3,0.1,0.5,0,0.8,0.1c0.2,0,0.3,0,0.5,0.1c0.4,0.1,0.9,0.2,1.3,0.3c0.3,0,0.7,0.1,1,0c0.3-0.1,0.6-0.1,0.8-0.2
		c0.3-0.1,0.7-0.1,1,0c0,0,0.1,0,0.1,0c0,0,0,0,0,0c0,0,0,0-0.1,0c-0.2,0-0.4,0-0.6-0.1c-0.2,0-0.5,0-0.7,0.1
		c-0.7,0.2-1.4,0.2-2.2,0c-0.3-0.1-0.6-0.1-0.9-0.2c-0.3-0.1-0.6-0.1-0.8-0.1C14.7,26.3,14.5,26.2,14.4,26.2
		C14.4,26.2,14.4,26.2,14.4,26.2z"/>
	<path d="M6.3,11.8C6.3,11.8,6.3,11.9,6.3,11.8C6.2,11.9,6.2,12,6.1,12c-0.6,0.3-1.2,0.5-1.8,0.4c-0.1,0-0.1,0-0.2-0.1
		c0,0,0-0.1-0.1-0.1c0,0,0.1,0,0.1,0c0.1,0,0.2,0.1,0.4,0.1c0.2,0,0.4,0,0.6,0c0.2,0,0.5-0.1,0.7-0.2C5.9,12.1,6.1,12,6.3,11.8
		C6.2,11.8,6.2,11.8,6.3,11.8C6.2,11.8,6.2,11.8,6.3,11.8z"/>
	<path d="M36.8,26.5c0.7,0.4,1.5,0.3,2.3,0.3C38.2,27,37.2,26.8,36.8,26.5z"/>
	<path d="M9.7,6.1c0,0,0-0.1,0-0.1c0,0.1,0.1,0.1,0.2,0.1c0.3,0,0.7,0,1,0c0,0,0,0,0.1,0C10.8,6.2,9.9,6.2,9.7,6.1z"/>
	<path d="M23.6,22.1c-0.4-0.1-0.8-0.2-1.2-0.3C22.8,21.9,23.1,22,23.6,22.1z"/>
	<path class="st0" d="M26,7.5c-0.1,0.1-0.2,0.2-0.3,0.3c0,0-0.1,0-0.1,0.1c0,0.2-0.1,0.2-0.2,0.2c0,0-0.1,0-0.1,0.1c0,0,0,0,0,0
		c0,0,0.1,0,0.1,0c0.4-0.2,0.7-0.3,1.1-0.2C26.8,8,27,8.3,27,8.7c0,0.2-0.1,0.3-0.2,0.3c-0.3,0.1-0.5,0.1-0.8,0
		c-0.3-0.1-0.5-0.5-0.1-0.8c0,0,0,0,0.1-0.1c-0.2,0.1-0.4,0.4-0.3,0.6c0.1,0.2,0.2,0.3,0.3,0.3c0.2,0.1,0.5,0.1,0.8,0
		C27,9,27.2,8.6,27,8.3c-0.2-0.3-0.4-0.4-0.8-0.4c-0.1,0-0.2,0-0.3,0c0.3-0.2,0.6-0.4,1-0.4c0.4,0,0.9,0,1.3,0
		c-0.1,0-0.1,0.1-0.2,0.2c0,0,0,0,0,0c0,0,0,0,0,0c0.2-0.2,0.4-0.2,0.6-0.2c0.2,0,0.5,0.1,0.7,0.2c0.3,0.1,0.5,0.4,0.4,0.7
		c-0.1,0.4-0.3,0.5-0.7,0.5c-0.2,0-0.4-0.1-0.5-0.2c-0.2-0.1-0.2-0.3-0.2-0.5c0-0.1,0-0.2,0-0.3c0-0.1,0.1-0.2,0.1-0.3
		c-0.1,0.1-0.2,0.2-0.2,0.4c0,0.1,0,0.2,0,0.2c0,0.6,0.7,1,1.2,0.7c0.3-0.2,0.5-0.6,0.4-0.9c0-0.1-0.1-0.2-0.2-0.3
		c-0.2-0.1-0.4-0.2-0.7-0.3c0.2,0,0.4,0,0.6,0c0,0,0,0,0,0c0,0-0.1,0-0.1,0c-0.3,0-0.6,0-1,0c-0.2,0-0.3,0-0.5,0c-0.2,0-0.3,0-0.5,0
		c0,0,0.1,0,0.1,0c0.9-0.3,1.9-0.4,2.9-0.3c0.7,0,1.3,0.1,1.9,0.4c0.1,0,0.2,0.1,0.3,0.1c0.2,0.2,0.4,0.3,0.7,0.4
		c0.4,0.1,0.7,0.4,1,0.6c0,0,0.1,0.1,0.1,0.1c0,0.1,0.1,0.1,0.2,0.1c0,0,0.1,0,0.1,0c0.3,0.2,0.6,0.5,0.8,0.9
		c0.1,0.1,0.2,0.2,0.3,0.3c0.1,0.1,0.2,0.3,0.3,0.5c0.2,0.4,0.4,0.8,0.6,1.2c0.1,0.3,0.1,0.5,0.2,0.8c0.1,0.5,0,1-0.2,1.4
		c-0.3,1-0.7,2-1.2,2.9c-0.4,0.7-1,1.3-1.7,1.7c-1.2,0.7-2.4,1.3-3.6,1.9c-1.1,0.5-2.3,0.7-3.6,0.7c-0.7,0-1.5-0.1-2.2-0.3
		c-0.9-0.2-1.7-0.6-2.3-1.2c-0.2-0.2-0.4-0.4-0.6-0.6c-0.4-0.6-0.9-1.1-1.2-1.8c-0.2-0.5-0.5-1-0.6-1.6c0-0.3,0-0.6,0-0.9
		c0.1-0.9,0.3-1.7,0.6-2.6c0,0,0,0,0-0.1c0.1,0,0.1,0.1,0.2,0.1c0-0.1,0-0.1-0.1-0.2c0.1-0.5,0.2-0.9,0.6-1.3
		c0.3-0.3,0.5-0.7,0.9-0.9c0.7-0.7,1.5-1.3,2.4-1.7C25,7.7,25.4,7.6,26,7.5C25.9,7.5,25.9,7.5,26,7.5z M23.5,9.2
		C23.5,9.2,23.5,9.2,23.5,9.2c-0.5,0.3-0.5,0.7-0.2,1c0.2,0.2,0.4,0.3,0.7,0.3c0.4,0,0.8-0.1,1-0.4c0.1-0.2,0.1-0.4-0.1-0.6
		c-0.4-0.4-1.1-0.5-1.6-0.3c0,0,0,0-0.1,0.1c0,0,0,0,0,0C23.3,9.2,23.4,9.2,23.5,9.2z M27.8,9.5C27.8,9.5,27.8,9.5,27.8,9.5
		c-0.3,0-0.7,0-1,0c-0.4,0-0.8,0.1-1.1,0.5c0,0.1-0.1,0.1-0.2,0.1c-0.3,0.2-0.5,0.3-0.7,0.6c-0.6,0.7-0.9,1.6-1,2.5
		c0,0.7,0.1,1.2,0.6,1.8c0.3,0.4,0.7,0.7,1.1,1c0.8,0.5,1.6,0.8,2.5,0.9c0.7,0.1,1.4,0.1,2.1-0.1c0.6-0.2,1.1-0.5,1.6-0.8
		c0.4-0.3,0.8-0.6,1-1.1c0.1-0.2,0.1-0.3,0.2-0.5c0.3-0.6,0.5-1.3,0.4-1.9c0-1-0.5-1.8-1.4-2.2c-0.8-0.3-1.6-0.5-2.5-0.6
		C28.9,9.6,28.4,9.5,27.8,9.5z M23,16.7C23,16.7,23,16.7,23,16.7c0,0.1,0,0.2,0,0.2c0.1,0.5,0.3,0.9,0.9,1c0.5,0,0.8-0.2,0.9-0.7
		c0-0.1,0-0.3,0-0.4c0-0.5-0.3-0.8-0.8-1c-0.2-0.1-0.4,0-0.6-0.1c0,0-0.1,0-0.2,0.1c-0.1,0.1-0.1,0.2-0.2,0.3
		C23.1,16.3,23,16.5,23,16.7z M34.6,17.4C34.6,17.4,34.6,17.4,34.6,17.4c0.1,0,0.1,0,0.1-0.1c0.1-0.1,0.2-0.3,0.2-0.4
		c0.2-0.4,0.3-0.8,0.5-1.2c0.1-0.2,0-0.3-0.2-0.3c0,0,0,0,0,0c-0.3,0.1-0.6,0-0.9-0.1c-0.1-0.1-0.3-0.1-0.4-0.1c-0.1,0-0.2,0-0.3,0
		c-0.1,0.1,0,0.2,0.1,0.3c0.1,0.1,0.3,0.2,0.4,0.4c0.3,0.3,0.6,0.6,0.7,1.1c0,0.1,0,0.2,0,0.3c-0.1,0-0.1,0-0.1-0.1c0,0,0,0,0,0
		c0,0,0.1,0.1,0.1,0.1C34.7,17.3,34.6,17.3,34.6,17.4z M31.7,7.8c-0.1,0-0.1,0.1-0.1,0.1c-0.3,0.2-0.5,0.6-0.4,0.9
		c0.1,0.4,0.5,0.7,0.9,0.8c0.5,0,0.9-0.2,1-0.7c0.2-0.6-0.1-1.1-0.6-1.2c-0.3-0.1-0.6,0-0.9,0.1c0,0,0,0,0,0.1
		C31.6,7.8,31.6,7.8,31.7,7.8z M22.3,13.7C22.3,13.7,22.3,13.6,22.3,13.7c-0.1,0.1-0.2,0.1-0.2,0.2c-0.2,0.3-0.2,0.7-0.1,1
		c0,0.2,0.2,0.4,0.4,0.4c0.3,0.1,0.6,0,0.9-0.2c0.2-0.1,0.3-0.2,0.3-0.4c0.2-0.8-0.3-1.3-0.9-1.5c-0.2-0.1-0.4,0-0.5,0.2
		c0,0,0,0.1,0,0.1c0,0,0.1,0,0.1,0c0.1-0.2,0.3-0.2,0.5-0.1c0.3,0.1,0.5,0.3,0.7,0.5c0.2,0.3,0.2,0.7,0,1c-0.2,0.3-0.5,0.4-0.8,0.4
		c-0.4,0-0.6-0.2-0.6-0.6C22,14.3,22,13.9,22.3,13.7z M27,18.9c0.2,0,0.4,0,0.5-0.2c0.1-0.1,0.3-0.3,0.3-0.4
		c0.2-0.3,0.1-0.7-0.2-0.9c-0.2-0.2-0.5-0.3-0.8-0.3c-0.3,0-0.5,0.1-0.6,0.3c-0.1,0.3-0.1,0.7,0,1C26.3,18.8,26.6,18.9,27,18.9z
		 M22.2,11.1c-0.1,0.2-0.1,0.4-0.2,0.6c-0.1,0.3,0,0.5,0.2,0.7c0.3,0.2,0.5,0.2,0.8,0c0.4-0.2,0.7-0.9,0.5-1.4
		c0-0.1-0.1-0.2-0.3-0.3c-0.5-0.2-1.1,0.1-1.3,0.5c0,0,0,0,0,0.1c0,0,0,0,0,0C22,11.2,22.1,11.1,22.2,11.1z M32.5,16.6
		c-0.1,0.1-0.2,0.2-0.2,0.4c0,0.5,0.2,0.9,0.6,1.3c0.1,0.1,0.2,0.2,0.3,0.1c0.1-0.1,0.1-0.2,0.2-0.3c0-0.7-0.2-1.3-0.6-1.8
		c-0.1-0.1-0.2-0.2-0.3-0.2c0,0.1,0.1,0.1,0.1,0.1c0.1,0.1,0.2,0.2,0.2,0.2c0.1,0.2,0.2,0.4,0.3,0.6c0.2,0.4,0.2,0.8,0.2,1.1
		c0,0.2-0.1,0.2-0.3,0.1c-0.3-0.2-0.5-0.5-0.6-0.9C32.3,17.1,32.3,16.8,32.5,16.6z M30.3,17.6c-0.2,0-0.3,0.1-0.3,0.3
		c0,0.4,0.4,0.7,0.7,0.7c0.1,0,0.2,0,0.3,0c0.3-0.1,0.5-0.4,0.6-0.7c0.1-0.3,0-0.6-0.3-0.8c-0.1-0.1-0.3-0.1-0.4-0.1
		c-0.2,0-0.4,0.1-0.6,0.2c0,0,0,0,0,0.1c0,0,0,0,0,0c0,0,0.1,0,0.1-0.1c0.4-0.3,0.6-0.2,1,0c0.2,0.1,0.2,0.3,0.2,0.4
		c0,0.3-0.2,0.5-0.4,0.6c-0.4,0.3-0.8,0.2-1-0.2C30.1,18.1,30.1,17.8,30.3,17.6z"/>
	<path class="st0" d="M33.2,5c-0.3,0.1-0.6,0.3-0.9,0.4c-0.6,0.2-1.3,0.5-1.9,0.7c-0.5,0.2-1.1,0.2-1.6,0.1c-0.6,0-1.2-0.1-1.8-0.1
		c-0.4,0-0.7,0-1.1,0c-1.1,0-1.9-0.5-2.6-1.3c-0.1-0.1-0.3-0.3-0.4-0.4c0.2,0,0.4-0.1,0.5-0.1c0.5,0,1.1,0,1.6,0
		c0.5,0,1,0.1,1.4,0.2c0.5,0.1,0.9,0.2,1.4,0.3c0.2,0,0.4,0.1,0.6,0.1c0.9,0,1.7,0,2.6,0C31.8,4.9,32.5,4.9,33.2,5
		C33.2,5,33.2,5,33.2,5z"/>
	<path class="st0" d="M20,2c-0.3,0.1-0.6,0.3-0.8,0.6C19.2,2.3,19.6,2,20,2z"/>
	<path class="st0" d="M2.4,18.1c0.2,0.2,0.4,0.4,0.6,0.7c0.2,0.4,0.3,0.7,0.4,1.1c0,0,0,0,0,0.1c0,0.1-0.1,0.2-0.1,0.2
		c-0.1,0-0.1,0-0.2-0.1c-0.3-0.2-0.5-0.5-0.7-0.9c0-0.2-0.1-0.3-0.1-0.5C2.2,18.6,2.3,18.3,2.4,18.1z"/>
	<path class="st0" d="M4.1,11.6c0.3-0.5,0.6-1,1.1-1.3c0.2-0.1,0.4-0.1,0.5,0.1c0.1,0.1,0.2,0.3,0.3,0.4c0.1,0.1,0,0.3,0,0.4
		c-0.2,0.5-1,0.8-1.5,0.6c-0.1-0.1-0.3-0.1-0.3-0.3C4.2,11.6,4.2,11.6,4.1,11.6z"/>
	<path d="M27.8,9.5c0.5,0,1.1,0,1.6,0.1c0.9,0.1,1.7,0.3,2.5,0.6c1,0.4,1.4,1.2,1.4,2.2c0,0.7-0.1,1.3-0.4,1.9
		c-0.1,0.2-0.1,0.3-0.2,0.5c-0.2,0.5-0.5,0.8-1,1.1c-0.5,0.3-1,0.6-1.6,0.8c-0.7,0.3-1.4,0.3-2.1,0.1c-0.9-0.1-1.7-0.4-2.5-0.9
		c-0.4-0.3-0.8-0.6-1.1-1c-0.4-0.5-0.6-1.1-0.6-1.8c0.1-0.9,0.4-1.8,1-2.5c0.2-0.2,0.4-0.4,0.7-0.6c0.1,0,0.1-0.1,0.2-0.1
		c0.3-0.4,0.7-0.5,1.1-0.5C27.2,9.5,27.5,9.5,27.8,9.5C27.8,9.5,27.8,9.5,27.8,9.5z M25.6,10.2c-0.3,0.2-0.5,0.4-0.7,0.6
		c-0.5,0.6-0.8,1.3-0.9,2.1c-0.1,0.8,0.1,1.5,0.6,2.2c0.2,0.2,0.5,0.5,0.8,0.7c0.9,0.7,2,1,3.1,1.2c0.6,0.1,1.3,0,1.9-0.3
		c0.3-0.1,0.6-0.3,0.9-0.4c0.4-0.2,0.8-0.5,1.1-0.9c0.2-0.3,0.3-0.6,0.5-0.9c0.3-0.7,0.5-1.5,0.5-2.3c-0.1-0.8-0.5-1.4-1.2-1.8
		c-0.4-0.2-0.9-0.3-1.3-0.5c-0.7-0.2-1.4-0.3-2.1-0.3c-0.6,0-1.2,0-1.8,0c-0.1,0-0.2,0-0.3,0c-0.2,0-0.4,0.1-0.6,0.3
		c0.1,0,0.2,0,0.2-0.1c0,0,0,0,0,0c-0.4,0-0.5,0.3-0.7,0.6c0,0,0,0,0,0C25.5,10.4,25.5,10.3,25.6,10.2z"/>
	<path class="st0" d="M23.4,9.2C23.5,9.2,23.5,9.2,23.4,9.2c0.1-0.1,0.2-0.1,0.2-0.1c0.5-0.1,0.9,0.1,1.2,0.4c0.2,0.2,0.2,0.3,0,0.5
		c-0.4,0.5-1.2,0.6-1.6,0.1c-0.1-0.1-0.1-0.2-0.1-0.4C23.2,9.5,23.3,9.4,23.4,9.2z"/>
	<path d="M23,16.7c0-0.2,0.1-0.4,0.1-0.6c0-0.1,0.1-0.2,0.2-0.3c0-0.1,0.1-0.1,0.2-0.1c0.2,0.1,0.4,0,0.6,0.1c0.5,0.1,0.8,0.5,0.8,1
		c0,0.1,0,0.3,0,0.4c-0.1,0.5-0.4,0.7-0.9,0.7c-0.6-0.1-0.8-0.5-0.9-1C23,16.9,23,16.8,23,16.7C23,16.7,23,16.7,23,16.7z M23.6,15.9
		c-0.1,0-0.2,0-0.2,0.1c-0.2,0.3-0.3,0.7-0.2,1.1c0.1,0.5,0.3,0.8,0.8,0.8c0.3,0,0.6,0,0.8-0.3c0.4-0.6,0.1-1.5-0.7-1.6
		c-0.3,0-0.5,0-0.6,0.3c0,0,0,0.1-0.1,0.1C23.2,16.2,23.3,16.1,23.6,15.9z"/>
	<path d="M34.6,17.4c0-0.1,0.1-0.1,0.1-0.2c0-0.1-0.1-0.1-0.1-0.1c0,0,0,0,0,0c0,0,0.1,0,0.1,0.1c0-0.1,0-0.2,0-0.3
		c-0.1-0.4-0.3-0.8-0.7-1.1c-0.1-0.1-0.3-0.2-0.4-0.4c-0.1-0.1-0.2-0.2-0.1-0.3c0,0,0.2,0,0.3,0c0.1,0,0.3,0.1,0.4,0.1
		c0.3,0.1,0.6,0.2,0.9,0.1c0,0,0,0,0,0c0.3,0,0.3,0,0.2,0.3c-0.1,0.4-0.3,0.8-0.5,1.2c-0.1,0.1-0.2,0.3-0.2,0.4
		C34.7,17.4,34.6,17.4,34.6,17.4C34.6,17.4,34.6,17.4,34.6,17.4z M33.6,15.2c0,0.1,0.1,0.1,0.1,0.1c0.1,0.1,0.2,0.2,0.3,0.3
		c0.4,0.4,0.7,0.8,0.8,1.4c0-0.1,0.1-0.1,0.1-0.2c0.1-0.3,0.3-0.6,0.4-1c0-0.1,0-0.1,0.1-0.2c0-0.2,0-0.2-0.2-0.2
		c-0.1,0-0.3,0-0.4,0c-0.2,0-0.4-0.1-0.6-0.2C34,15.3,33.8,15.2,33.6,15.2z"/>
	<path d="M31.7,7.8c-0.1,0-0.1,0-0.2,0c0,0,0-0.1,0-0.1c0.3-0.1,0.6-0.2,0.9-0.1c0.5,0.1,0.8,0.6,0.6,1.2c-0.1,0.4-0.5,0.7-1,0.7
		c-0.5,0-0.8-0.3-0.9-0.8c-0.1-0.3,0.1-0.7,0.4-0.9C31.6,7.8,31.6,7.8,31.7,7.8z M32.1,7.8c-0.1,0-0.2,0-0.3,0
		c-0.3,0.1-0.5,0.3-0.5,0.6c0,0.1,0,0.2,0,0.3c0.1,0.4,0.5,0.6,0.9,0.6c0.4,0,0.7-0.3,0.9-0.6c0.1-0.4,0-0.9-0.4-1
		c-0.2-0.1-0.4-0.1-0.7,0C32,7.8,32,7.8,32.1,7.8z"/>
	<path d="M22.3,13.7c-0.3,0.3-0.3,0.6-0.3,1c0,0.4,0.2,0.6,0.6,0.6c0.3,0,0.6-0.1,0.8-0.4c0.2-0.3,0.2-0.7,0-1
		c-0.2-0.3-0.4-0.4-0.7-0.5c-0.2-0.1-0.4,0-0.5,0.1c0,0,0,0-0.1,0c0,0,0-0.1,0-0.1c0.1-0.2,0.3-0.2,0.5-0.2c0.6,0.2,1.1,0.7,0.9,1.5
		c0,0.2-0.1,0.3-0.3,0.4c-0.3,0.2-0.6,0.3-0.9,0.2c-0.2,0-0.4-0.2-0.4-0.4c-0.1-0.3,0-0.7,0.1-1C22.1,13.8,22.2,13.7,22.3,13.7
		C22.3,13.6,22.3,13.7,22.3,13.7z"/>
	<path d="M23.4,9.2c-0.1,0.1-0.2,0.3-0.2,0.5c0,0.1,0,0.3,0.1,0.4c0.4,0.5,1.2,0.4,1.6-0.1c0.1-0.2,0.1-0.4,0-0.5
		c-0.3-0.3-0.7-0.4-1.2-0.4C23.6,9.1,23.6,9.1,23.4,9.2c0-0.1-0.1,0-0.2,0c0,0,0,0,0,0c0,0,0,0,0.1-0.1c0.5-0.2,1.2-0.1,1.6,0.3
		c0.2,0.2,0.2,0.4,0.1,0.6c-0.2,0.4-0.6,0.5-1,0.4c-0.2,0-0.5-0.1-0.7-0.3C23,9.9,23.1,9.5,23.4,9.2z"/>
	<path d="M27,18.9c-0.4,0-0.7-0.2-0.7-0.4c-0.1-0.3-0.1-0.7,0-1c0.1-0.2,0.3-0.4,0.6-0.3c0.3,0,0.6,0.1,0.8,0.3
		c0.3,0.2,0.4,0.6,0.2,0.9c-0.1,0.2-0.2,0.3-0.3,0.4C27.3,18.9,27.1,18.9,27,18.9z M26.9,18.8c0,0,0.1,0,0.1,0
		c0.4-0.1,0.7-0.4,0.8-0.8c0-0.2,0-0.3-0.1-0.4c-0.3-0.3-0.7-0.4-1.1-0.4c-0.2,0-0.4,0.2-0.4,0.4c0,0.2,0,0.4,0,0.6
		C26.3,18.6,26.5,18.8,26.9,18.8z"/>
	<path d="M22.2,11.1c-0.1,0.1-0.1,0.1-0.2,0.2c0,0,0,0,0,0c0,0,0,0,0-0.1c0.3-0.4,0.8-0.7,1.3-0.5c0.1,0,0.2,0.1,0.3,0.3
		c0.2,0.4-0.1,1.1-0.5,1.4c-0.3,0.1-0.5,0.2-0.8,0c-0.2-0.2-0.3-0.4-0.2-0.7C22,11.5,22.1,11.3,22.2,11.1z M22.3,11
		c-0.1,0.1-0.1,0.2-0.2,0.3c-0.1,0.1-0.1,0.3-0.1,0.4c0,0.2,0,0.4,0.1,0.5c0.2,0.2,0.5,0.3,0.8,0.1c0.4-0.2,0.6-0.8,0.5-1.2
		c0-0.2-0.1-0.3-0.3-0.3C22.8,10.7,22.5,10.8,22.3,11C22.3,11,22.3,11,22.3,11z"/>
	<path d="M32.5,16.6c-0.1,0.3-0.1,0.5,0,0.8c0.1,0.3,0.3,0.7,0.6,0.9c0.2,0.1,0.3,0.1,0.3-0.1c0-0.4,0-0.8-0.2-1.1
		c-0.1-0.2-0.2-0.4-0.3-0.6c-0.1-0.1-0.2-0.2-0.2-0.2c0,0-0.1-0.1-0.1-0.1c0.1,0,0.3,0.1,0.3,0.2c0.4,0.6,0.6,1.2,0.6,1.8
		c0,0.1,0,0.3-0.2,0.3c-0.1,0.1-0.3,0-0.3-0.1c-0.3-0.4-0.5-0.8-0.6-1.3C32.3,16.8,32.4,16.7,32.5,16.6z"/>
	<path d="M30.3,17.6c-0.2,0.1-0.3,0.4-0.1,0.6c0.2,0.4,0.7,0.5,1,0.2c0.2-0.2,0.3-0.4,0.4-0.6c0-0.2,0-0.3-0.2-0.4
		c-0.4-0.2-0.6-0.3-1,0c0,0-0.1,0-0.1,0.1c0,0,0,0,0,0c0,0,0-0.1,0-0.1c0.2-0.2,0.4-0.3,0.6-0.2c0.1,0,0.3,0.1,0.4,0.1
		c0.3,0.2,0.4,0.4,0.3,0.8c-0.1,0.3-0.3,0.5-0.6,0.7c-0.1,0-0.2,0-0.3,0c-0.3,0-0.7-0.3-0.7-0.7C30.1,17.8,30.2,17.7,30.3,17.6z"/>
	<path class="st0" d="M25.6,10.2c-0.1,0.1-0.1,0.2-0.2,0.3c0,0,0,0,0,0c0.2-0.3,0.3-0.6,0.7-0.6c0,0,0,0,0,0c-0.1,0-0.1,0-0.2,0.1
		c0.2-0.2,0.4-0.3,0.6-0.3c0.1,0,0.2,0,0.3,0c0.6,0,1.2,0,1.8,0c0.7,0,1.4,0.2,2.1,0.3c0.5,0.1,0.9,0.2,1.3,0.5
		c0.8,0.4,1.1,1,1.2,1.8c0.1,0.8-0.1,1.6-0.5,2.3c-0.1,0.3-0.3,0.6-0.5,0.9c-0.3,0.4-0.7,0.7-1.1,0.9c-0.3,0.1-0.6,0.3-0.9,0.4
		c-0.6,0.3-1.2,0.4-1.9,0.3c-1.1-0.1-2.2-0.5-3.1-1.2c-0.3-0.2-0.5-0.4-0.8-0.7c-0.6-0.6-0.7-1.3-0.6-2.2c0.1-0.8,0.4-1.5,0.9-2.1
		C25.1,10.6,25.3,10.4,25.6,10.2z M31.4,14.6L31.4,14.6c0.1,0.2,0.1,0.4,0.2,0.6c0.1,0.1,0.2,0.2,0.3,0.1c0.1,0,0.2-0.1,0.2-0.3
		c0-0.3-0.4-0.7-0.7-0.6C31.4,14.5,31.4,14.5,31.4,14.6z M29.8,12.7C29.8,12.7,29.8,12.7,29.8,12.7c0-0.2-0.1-0.4-0.2-0.6
		c-0.2-0.2-0.4-0.3-0.7-0.4c-0.3-0.1-0.6-0.1-0.8,0.2c0,0,0,0-0.1,0c-0.4,0-0.7,0.3-0.8,0.7c0,0.1-0.1,0.3,0,0.4
		c0,0.3,0.3,0.4,0.5,0.4c0.4,0.1,0.7,0.2,1.1,0.2c0.4,0.1,0.8-0.1,0.9-0.5C29.7,13.1,29.7,12.9,29.8,12.7z M29.1,15.6
		c-0.2,0-0.3,0.1-0.4,0.1c-0.1,0.1,0,0.1,0.1,0.2c0.1,0,0.2,0.1,0.3,0.1c0.1,0,0.1,0.1,0.1,0.2c0,0.1-0.1,0.1-0.1,0.2
		c0,0.1,0,0.2,0,0.2c0,0,0.1,0,0.2,0c0.1,0,0.2-0.1,0.2-0.2c0-0.1,0-0.2,0-0.2c-0.1-0.2-0.1-0.3,0-0.5c0,0,0,0,0,0
		c0-0.1,0-0.2-0.1-0.3c-0.1-0.1-0.3,0-0.4,0.1c0.1,0,0.2,0,0.3,0c0.1,0,0.2,0,0.2,0.1c0,0.1,0,0.3,0,0.4c-0.2-0.1-0.3-0.1-0.5-0.2
		C28.9,15.6,29,15.6,29.1,15.6z M30.9,15.9C30.9,15.9,30.9,15.9,30.9,15.9c-0.2-0.2-0.2-0.4-0.3-0.5c0-0.1,0-0.1,0-0.2
		c-0.1,0-0.1,0-0.2,0c0,0,0,0-0.1,0.1c0,0,0,0.1,0,0.1c0,0,0.1,0,0.1,0c0,0,0.1,0,0.1,0c0,0,0,0.1,0,0.1c0,0.1-0.1,0.2-0.2,0.3
		c0,0-0.1-0.1-0.1-0.1c0,0-0.1,0.1-0.1,0.1c0,0,0.1,0.1,0.1,0.1c0,0,0.1,0,0.1-0.1c0.1,0,0.1-0.1,0.1-0.2c0.1,0.2,0.1,0.3,0.3,0.4
		C30.9,16,30.9,15.9,30.9,15.9z M24.9,12.5c-0.3-0.1-0.4,0-0.5,0.2c0,0.1,0,0.3,0,0.4c0.1,0,0.2,0,0.2,0c0.2,0,0.3,0.1,0.2,0.3
		c0,0.1-0.1,0.2-0.1,0.3c0,0,0,0.1-0.1,0.1c0.1-0.1,0.3-0.3,0.3-0.4c0-0.2-0.1-0.3-0.3-0.3c-0.2,0-0.2,0-0.2-0.2c0,0,0,0,0,0
		C24.5,12.5,24.5,12.5,24.9,12.5C24.8,12.5,24.8,12.5,24.9,12.5C24.8,12.5,24.8,12.5,24.9,12.5z M26.5,10.9
		C26.5,10.9,26.5,10.9,26.5,10.9c0.2,0.1,0.3,0,0.4-0.1c0.1-0.1,0.1-0.2,0-0.3c0,0-0.1-0.1-0.2-0.1c-0.1,0-0.1-0.1,0-0.1
		c0,0,0.1-0.1,0.1-0.1c0,0,0-0.1,0-0.1c0,0-0.1,0-0.1,0c-0.2,0-0.3,0.1-0.6,0.1c0.1,0,0.1,0,0.2,0c0.1,0,0.2,0,0.3-0.1
		c0,0,0.1,0,0.1,0c0,0,0,0.1,0,0.1c0,0-0.1,0.1-0.1,0.1c-0.1,0.1-0.1,0.1,0,0.1c0,0,0,0,0.1,0c0.1,0.1,0.2,0.1,0.2,0.2
		c0,0.1-0.2,0.1-0.3,0.2C26.7,10.9,26.6,10.9,26.5,10.9z M25.6,14.9C25.6,14.9,25.6,14.9,25.6,14.9c-0.1,0.1-0.1,0.2-0.2,0.2
		c-0.1,0.1-0.1,0.3,0,0.4c0.1,0.1,0.4,0.2,0.5,0.1c0.1,0,0.1-0.1,0.1-0.2c0-0.1-0.1-0.1-0.2-0.1c-0.1,0-0.1,0.1-0.1,0.2
		c0,0,0.1-0.1,0.1-0.1c0,0,0.1,0,0.1,0c0,0,0,0.1,0,0.1c0,0,0,0.1-0.1,0.1c-0.2,0-0.3,0-0.4-0.1c-0.1-0.1-0.1-0.2,0-0.3
		C25.6,15.1,25.6,15,25.6,14.9z M25.2,11.2C25.2,11.2,25.2,11.2,25.2,11.2c0,0.1,0,0.3,0,0.4c0,0.1,0.1,0.2,0.2,0.1
		c0.1,0,0.1-0.1,0.2-0.2c0,0.2,0.1,0.3,0.1,0.5c0,0,0,0,0,0c0-0.2-0.1-0.4-0.1-0.6c-0.1,0.1-0.2,0.1-0.2,0.2c-0.1,0.1-0.1,0.1-0.1,0
		C25.2,11.4,25.2,11.3,25.2,11.2z M28.9,10.5c-0.1,0.1-0.1,0.2-0.3,0.1c0.1-0.1,0.1-0.2,0.2-0.3c0-0.1,0.1-0.1,0.1-0.2
		c0.1-0.1,0-0.2-0.1-0.2c-0.1,0-0.2,0-0.3,0.1c0.1,0,0.1,0,0.2,0c0.1,0,0.1,0,0.1,0c0,0,0,0.1,0,0.2c0,0.1-0.1,0.1-0.1,0.2
		c-0.1,0.1-0.1,0.2-0.2,0.3c0,0,0,0.1,0,0.1C28.7,10.8,28.9,10.6,28.9,10.5z M27.6,16c-0.1-0.2-0.1-0.3-0.2-0.5
		c-0.2,0-0.3,0.1-0.5,0.1c0.1,0,0.2,0,0.3,0c0.1,0,0.1,0,0.1,0.1C27.5,15.8,27.5,15.9,27.6,16c-0.1,0.1-0.1,0.1-0.2,0.2c0,0,0,0,0,0
		c0,0,0.1,0,0.1-0.1c0,0.1,0,0.2,0.1,0.2c0,0,0,0,0.1,0c0,0,0,0,0-0.1C27.7,16.3,27.7,16.2,27.6,16c0.1,0,0.1,0,0.1,0c0,0,0,0,0,0
		C27.7,16,27.7,16,27.6,16z M31,10.9C31,10.9,31,10.9,31,10.9c0.1-0.2,0.1-0.4,0.1-0.6c-0.2,0-0.2,0.3-0.4,0.3
		c0.2,0.1,0.2-0.1,0.4-0.2C31,10.6,31,10.7,31,10.9z"/>
	<path class="st0" d="M23.6,15.9c-0.3,0.2-0.3,0.3-0.3,0.5c0,0,0.1-0.1,0.1-0.1c0.1-0.3,0.4-0.3,0.6-0.3c0.8,0.1,1.1,1,0.7,1.6
		c-0.2,0.3-0.5,0.3-0.8,0.3c-0.5-0.1-0.7-0.3-0.8-0.8c-0.1-0.4,0-0.7,0.2-1.1C23.4,15.8,23.4,15.8,23.6,15.9z"/>
	<path class="st0" d="M33.6,15.2c0.2,0,0.4,0.1,0.5,0.1c0.2,0.1,0.4,0.2,0.6,0.2c0.1,0,0.3,0,0.4,0c0.2,0,0.2,0,0.2,0.2
		c0,0.1,0,0.1-0.1,0.2c-0.1,0.3-0.3,0.6-0.4,1c0,0-0.1,0.1-0.1,0.2c-0.1-0.6-0.4-1-0.8-1.4c-0.1-0.1-0.2-0.2-0.3-0.3
		C33.6,15.3,33.6,15.3,33.6,15.2z"/>
	<path class="st0" d="M32.1,7.8c0,0-0.1,0-0.2-0.1c0.3,0,0.5-0.1,0.7,0c0.4,0.1,0.6,0.6,0.4,1c-0.1,0.4-0.5,0.6-0.9,0.6
		c-0.4,0-0.8-0.3-0.9-0.6c0-0.1,0-0.2,0-0.3c0.1-0.3,0.2-0.5,0.5-0.6C31.9,7.8,32,7.8,32.1,7.8z"/>
	<path class="st0" d="M26.9,18.8c-0.4,0-0.7-0.2-0.7-0.6c0-0.2,0-0.4,0-0.6c0-0.2,0.2-0.4,0.4-0.4c0.4-0.1,0.8,0.1,1.1,0.4
		c0.1,0.1,0.1,0.3,0.1,0.4c-0.1,0.4-0.4,0.7-0.8,0.8C27,18.8,27,18.8,26.9,18.8z"/>
	<path class="st0" d="M22.3,11C22.3,11,22.3,11,22.3,11c0.2-0.2,0.5-0.3,0.9-0.2c0.2,0,0.2,0.2,0.3,0.3c0.1,0.4-0.1,1-0.5,1.2
		c-0.3,0.2-0.6,0.1-0.8-0.1C22,12.1,22,11.9,22,11.7c0-0.1,0.1-0.3,0.1-0.4C22.2,11.2,22.3,11.1,22.3,11z"/>
	<path d="M29.8,12.7c0,0.2-0.1,0.4-0.1,0.6c-0.2,0.4-0.5,0.5-0.9,0.5c-0.4-0.1-0.7-0.1-1.1-0.2c-0.2-0.1-0.4-0.2-0.5-0.4
		c0-0.1,0-0.3,0-0.4c0.1-0.4,0.4-0.7,0.8-0.7c0,0,0.1,0,0.1,0c0.2-0.3,0.5-0.3,0.8-0.2c0.2,0.1,0.5,0.2,0.7,0.4
		C29.7,12.3,29.8,12.5,29.8,12.7C29.8,12.7,29.8,12.7,29.8,12.7z M27.9,12.1C27.9,12.1,27.9,12.1,27.9,12.1c-0.1,0-0.1,0-0.2,0
		c-0.3,0.1-0.5,0.4-0.6,0.7c-0.1,0.2,0,0.4,0.2,0.6c0.1,0.1,0.2,0.1,0.4,0.2c0.3,0.1,0.5,0.1,0.8,0.1c0.6,0.1,0.9-0.1,1.1-0.7
		c0.1-0.4,0-0.7-0.4-1c-0.1-0.1-0.2-0.1-0.3-0.1c-0.3-0.1-0.5-0.1-0.7,0.2c0,0,0.1,0.1,0.1,0.1c0,0,0,0,0,0c-0.1-0.1-0.2,0-0.3,0
		C27.9,12.1,27.9,12.1,27.9,12.1z"/>
	<path d="M29.1,15.6c-0.1,0.1-0.3,0.1-0.3,0.2c0.2,0.1,0.3,0.1,0.5,0.2c0-0.1,0-0.3,0-0.4c0-0.1-0.1-0.1-0.2-0.1c-0.1,0-0.2,0-0.3,0
		c0.1-0.1,0.3-0.1,0.4-0.1c0.1,0.1,0.1,0.2,0.1,0.3c0,0,0,0,0,0c0,0.2-0.1,0.3,0,0.5c0,0.1,0,0.2,0,0.2c0,0.1-0.1,0.2-0.2,0.2
		c-0.1,0-0.2,0-0.2,0c0,0,0-0.1,0-0.2c0-0.1,0.1-0.2,0.1-0.2c0.1-0.1,0-0.1-0.1-0.2c-0.1,0-0.2-0.1-0.3-0.1c-0.1,0-0.1-0.1-0.1-0.2
		C28.8,15.6,28.9,15.6,29.1,15.6z M29.3,16.1c0,0.1-0.1,0.2-0.1,0.3c0,0,0,0.1,0,0.1c0,0,0.1,0.1,0.1,0c0,0,0.1-0.1,0.1-0.1
		C29.4,16.3,29.4,16.2,29.3,16.1z"/>
	<path d="M31.4,14.6c-0.1-0.1-0.1-0.1,0-0.2c0.3-0.1,0.7,0.3,0.7,0.6c0,0.1-0.1,0.2-0.2,0.3c-0.1,0-0.3,0-0.3-0.1
		C31.5,15,31.5,14.8,31.4,14.6c0,0,0,0.1,0.1,0.1c0.1,0.1,0.1,0.3,0.2,0.4c0,0.1,0.1,0.1,0.2,0.1c0.1,0,0.2-0.1,0.2-0.2
		C32.1,14.7,31.8,14.4,31.4,14.6C31.5,14.5,31.5,14.6,31.4,14.6z"/>
	<path d="M30.9,15.9c0,0,0,0.1,0,0.1c-0.2-0.1-0.2-0.3-0.3-0.4c0,0.1-0.1,0.1-0.1,0.2c0,0-0.1,0.1-0.1,0.1c0,0-0.1-0.1-0.1-0.1
		c0,0,0-0.1,0.1-0.1c0,0,0,0.1,0.1,0.1c0.1,0,0.2-0.2,0.2-0.3c0,0,0-0.1,0-0.1c0,0-0.1,0-0.1,0c0,0-0.1,0-0.1,0c0,0,0-0.1,0-0.1
		c0,0,0,0,0.1-0.1c0.1,0,0.1-0.1,0.2,0c0,0,0,0.1,0,0.2C30.7,15.5,30.8,15.7,30.9,15.9C30.9,15.9,30.9,15.9,30.9,15.9z"/>
	<path d="M24.9,12.5C24.8,12.5,24.8,12.5,24.9,12.5C24.8,12.5,24.8,12.5,24.9,12.5c-0.3,0-0.4,0.1-0.4,0.3c0,0,0,0,0,0
		c0,0.2,0,0.2,0.2,0.2c0.2,0,0.3,0.1,0.3,0.3c0,0.1-0.1,0.4-0.3,0.4c0,0,0-0.1,0.1-0.1c0-0.1,0.1-0.2,0.1-0.3c0-0.1,0-0.3-0.2-0.3
		c-0.1,0-0.1,0-0.2,0c0-0.1,0-0.3,0-0.4C24.4,12.5,24.6,12.4,24.9,12.5z"/>
	<path d="M26.5,10.9c0.1,0,0.1,0,0.2,0c0.1,0,0.2,0,0.3-0.2c0-0.1-0.1-0.2-0.2-0.2c0,0,0,0-0.1,0c-0.1,0-0.1-0.1,0-0.1
		c0,0,0.1-0.1,0.1-0.1c0,0,0-0.1,0-0.1c0,0-0.1,0-0.1,0c-0.1,0-0.2,0-0.3,0.1c-0.1,0-0.1,0-0.2,0c0.2,0,0.4-0.1,0.6-0.1
		c0,0,0.1,0,0.1,0c0,0,0,0.1,0,0.1c0,0-0.1,0.1-0.1,0.1c-0.1,0-0.1,0.1,0,0.1c0.1,0,0.1,0.1,0.2,0.1c0.1,0.1,0.1,0.2,0,0.3
		C26.8,10.9,26.7,10.9,26.5,10.9C26.5,10.9,26.5,10.9,26.5,10.9z"/>
	<path d="M25.6,14.9c0,0.1-0.1,0.2-0.1,0.2c0,0.1-0.1,0.2,0,0.3c0.1,0.1,0.3,0.1,0.4,0.1c0,0,0.1,0,0.1-0.1c0,0,0-0.1,0-0.1
		c0,0-0.1,0-0.1,0c0,0-0.1,0.1-0.1,0.1c0-0.1,0-0.2,0.1-0.2c0.1,0,0.2,0,0.2,0.1c0,0.1,0,0.1-0.1,0.2c-0.1,0.1-0.4,0-0.5-0.1
		c-0.1-0.1-0.1-0.3,0-0.4C25.5,15.1,25.6,15,25.6,14.9C25.6,14.9,25.6,14.9,25.6,14.9z"/>
	<path d="M25.2,11.2c0,0.1,0,0.3,0,0.4c0,0.1,0.1,0.1,0.1,0c0.1-0.1,0.1-0.1,0.2-0.2c0,0.2,0.1,0.4,0.1,0.6c0,0,0,0,0,0
		c0-0.2-0.1-0.3-0.1-0.5c-0.1,0.1-0.1,0.1-0.2,0.2c-0.1,0.1-0.2,0-0.2-0.1C25.2,11.5,25.2,11.3,25.2,11.2
		C25.2,11.2,25.2,11.2,25.2,11.2z"/>
	<path d="M28.9,10.5c0,0.1-0.2,0.3-0.3,0.2c0,0-0.1-0.1,0-0.1c0-0.1,0.1-0.2,0.2-0.3c0-0.1,0.1-0.1,0.1-0.2c0,0,0-0.1,0-0.2
		c0,0-0.1,0-0.1,0c-0.1,0-0.1,0-0.2,0c0.1-0.1,0.2-0.1,0.3-0.1C29,9.9,29,10,29,10.1c0,0.1-0.1,0.1-0.1,0.2
		c-0.1,0.1-0.1,0.2-0.2,0.3C28.8,10.7,28.8,10.6,28.9,10.5z"/>
	<path d="M27.6,16c0,0,0.1,0,0.1,0c0,0,0,0,0,0C27.7,16.1,27.7,16.1,27.6,16c0,0.2,0.1,0.2,0.1,0.3c0,0,0,0,0,0.1c0,0-0.1,0-0.1,0
		c0-0.1,0-0.1-0.1-0.2c0,0-0.1,0-0.1,0.1c0,0,0,0,0,0C27.5,16.2,27.5,16.1,27.6,16c-0.1-0.1-0.1-0.2-0.2-0.3c0-0.1-0.1-0.1-0.1-0.1
		c-0.1,0-0.2,0-0.3,0c0.2,0,0.3-0.1,0.5-0.1C27.5,15.7,27.6,15.9,27.6,16z"/>
	<path d="M31,10.9c0-0.2,0.1-0.3,0.1-0.5c-0.1,0.1-0.2,0.3-0.4,0.2c0.2,0,0.2-0.2,0.4-0.3C31.1,10.5,31.1,10.7,31,10.9
		C31,10.9,31,10.9,31,10.9z"/>
	<path class="st0" d="M27.9,12.1c0,0,0,0.1,0,0.1c0.1,0,0.2-0.2,0.3,0c0,0,0,0,0,0c0,0-0.1-0.1-0.1-0.1c0.2-0.2,0.5-0.2,0.7-0.2
		c0.1,0,0.2,0.1,0.3,0.1c0.4,0.2,0.5,0.5,0.4,1c-0.1,0.6-0.5,0.8-1.1,0.7c-0.3-0.1-0.5-0.1-0.8-0.1c-0.1,0-0.2-0.1-0.4-0.2
		c-0.2-0.1-0.3-0.3-0.2-0.6c0.1-0.3,0.3-0.5,0.6-0.7C27.8,12.1,27.8,12.1,27.9,12.1C27.9,12.1,27.9,12.1,27.9,12.1z"/>
	<path class="st0" d="M29.3,16.1c0.1,0.1,0.1,0.2,0.1,0.3c0,0,0,0.1-0.1,0.1c0,0-0.1,0-0.1,0c0,0,0-0.1,0-0.1
		C29.2,16.3,29.3,16.2,29.3,16.1z"/>
	<path class="st0" d="M31.4,14.6C31.5,14.6,31.5,14.5,31.4,14.6c0.4-0.2,0.7,0.1,0.7,0.4c0,0.1-0.1,0.2-0.2,0.2
		c-0.1,0-0.2,0-0.2-0.1c-0.1-0.1-0.1-0.3-0.2-0.4C31.5,14.7,31.4,14.6,31.4,14.6C31.4,14.6,31.4,14.6,31.4,14.6z"/>
</g>
</svg>
